<?xml version="1.0" standalone="no"?>
<!DOCTYPE svg PUBLIC "-//W3C//DTD SVG 20010904//EN"
 "http://www.w3.org/TR/2001/REC-SVG-20010904/DTD/svg10.dtd">
<svg version="1.0" xmlns="http://www.w3.org/2000/svg"
 width="730.000000pt" height="723.000000pt" viewBox="0 0 730.000000 723.000000"
 preserveAspectRatio="xMidYMid meet">
<metadata>
Created by potrace 1.16, written by Peter Selinger 2001-2019
</metadata>
<g transform="translate(0.000000,723.000000) scale(0.100000,-0.100000)"
fill="#384CCC" stroke="none">
<path d="M4555 7204 c-131 -46 -228 -57 -465 -51 -189 5 -218 3 -244 -11 -40
-23 -185 -117 -216 -140 -14 -10 -36 -25 -49 -31 -13 -7 -44 -28 -68 -47 -25
-19 -49 -34 -54 -34 -5 0 -23 -9 -38 -21 -34 -25 -114 -60 -228 -100 -154 -53
-212 -107 -237 -218 -37 -162 -1 -357 82 -453 8 -10 25 -18 37 -18 14 0 25 -8
28 -20 3 -14 14 -20 31 -20 23 0 26 -4 26 -38 0 -44 24 -118 69 -211 17 -36
36 -88 42 -117 10 -46 9 -59 -15 -130 -14 -44 -26 -93 -26 -111 0 -18 -6 -36
-14 -40 -18 -11 -36 -55 -85 -213 -23 -74 -53 -160 -66 -190 -12 -30 -37 -93
-54 -140 -18 -47 -49 -110 -70 -140 -75 -108 -130 -348 -118 -510 l6 -80 -27
0 c-48 0 -52 -13 -52 -161 0 -134 1 -138 26 -169 20 -23 34 -62 55 -154 19
-88 40 -149 73 -214 42 -84 46 -98 46 -165 0 -63 -6 -90 -46 -192 -64 -168
-64 -167 -64 -295 0 -94 4 -131 26 -205 22 -79 95 -243 138 -315 9 -14 27 -51
41 -83 19 -45 32 -61 54 -70 16 -6 32 -18 35 -26 7 -17 54 -93 97 -157 15 -22
43 -55 63 -73 20 -19 36 -39 36 -43 0 -11 60 -102 107 -161 71 -90 82 -108
108 -178 38 -97 110 -184 176 -211 4 -2 9 -13 13 -25 6 -20 1 -24 -56 -41 -68
-21 -122 -33 -267 -57 -52 -9 -119 -25 -150 -36 -81 -28 -353 -39 -379 -16
-10 9 -34 22 -53 28 -19 7 -56 29 -82 50 -27 21 -74 47 -105 58 -31 12 -70 28
-85 36 -16 8 -52 15 -81 15 -43 0 -61 -6 -93 -29 -41 -30 -65 -31 -38 -2 73
80 96 110 111 145 9 23 34 79 55 126 40 93 61 160 79 260 7 36 25 89 41 118
38 68 59 150 59 228 0 56 -6 76 -60 185 -67 137 -119 202 -160 197 -24 -3 -25
-6 -22 -58 3 -54 20 -98 67 -175 56 -91 63 -112 53 -168 -5 -28 -25 -101 -44
-162 -19 -60 -45 -148 -59 -195 -13 -47 -30 -107 -38 -135 l-15 -50 -1 43 c-1
55 -33 149 -71 211 -36 57 -38 103 -11 181 14 40 24 55 38 55 10 -1 17 -6 16
-13 -4 -18 82 -16 97 3 25 30 3 52 -61 61 -58 9 -62 11 -85 51 -22 41 -24 53
-26 245 l-3 203 -70 0 -69 0 1 -181 c1 -137 5 -196 18 -245 25 -90 28 -115 21
-144 -9 -37 -36 -32 -151 25 -55 27 -105 50 -111 50 -26 0 -44 38 -44 91 0 30
-5 72 -11 94 -43 171 -56 286 -36 333 17 37 117 28 170 -17 10 -8 29 -16 43
-17 20 -1 24 4 24 27 0 20 -10 35 -33 53 -19 15 -39 26 -44 26 -6 0 -16 6 -22
14 -7 8 -42 17 -82 21 -51 5 -77 13 -97 30 -55 46 -108 62 -144 43 -26 -13
-17 -43 25 -86 29 -30 37 -46 37 -74 0 -33 -5 -39 -42 -60 -51 -28 -59 -54
-25 -83 38 -32 54 -63 80 -165 59 -226 69 -245 157 -292 25 -13 56 -31 70 -41
14 -9 44 -23 67 -31 62 -22 101 -55 114 -95 19 -59 120 -252 151 -286 37 -43
82 -62 103 -45 13 11 15 10 11 -1 -2 -8 -7 -26 -10 -42 -4 -15 -28 -52 -54
-82 -26 -30 -87 -103 -137 -161 -142 -168 -195 -222 -261 -269 -72 -52 -185
-170 -208 -219 -31 -67 -17 -102 39 -93 49 8 61 20 80 77 11 34 32 64 73 102
91 87 118 96 202 65 62 -23 229 -29 403 -14 l99 9 71 -76 c40 -42 110 -117
157 -167 68 -73 99 -98 155 -125 67 -33 74 -34 185 -34 112 0 222 18 245 41 5
5 18 9 28 9 20 0 161 73 224 115 18 13 55 41 82 64 27 23 53 41 58 41 5 0 24
11 43 25 39 29 95 33 162 11 24 -8 82 -17 129 -21 l86 -7 12 -40 c15 -50 52
-88 84 -88 48 0 49 63 3 175 -33 79 -33 80 -69 80 -36 0 -50 12 -24 20 6 2 44
6 84 10 69 6 72 5 75 -17 2 -12 18 -32 38 -45 19 -12 47 -31 62 -43 36 -28 82
-24 86 7 5 38 -66 133 -100 133 -10 0 -18 7 -18 15 0 18 -1 18 43 0 48 -20
116 -67 152 -105 40 -42 85 -62 131 -58 37 3 39 5 42 39 3 32 -3 42 -42 80
-30 29 -46 53 -46 69 0 39 35 86 87 117 26 15 70 42 96 59 43 29 60 33 145 39
152 11 280 56 433 150 9 6 36 21 60 34 134 73 157 99 129 152 -18 33 -97 26
-179 -16 -38 -19 -75 -40 -82 -47 -24 -24 -93 -60 -139 -74 -25 -8 -89 -14
-144 -14 l-100 0 -95 -63 c-148 -98 -192 -124 -246 -148 -60 -26 -95 -56 -95
-81 0 -11 -7 -18 -19 -18 -10 0 -24 -7 -31 -15 -16 -19 -23 -19 -50 3 l-22 18
23 39 c13 22 55 77 94 122 38 46 88 104 110 131 22 27 52 56 68 65 25 15 27
21 27 76 0 58 1 61 38 88 20 15 41 35 46 43 5 8 41 49 80 92 84 90 139 155
146 171 3 7 32 52 65 100 33 49 71 105 85 126 33 49 109 146 185 233 33 39 66
80 74 92 8 11 32 40 54 62 21 23 39 45 38 48 -1 3 2 6 5 5 3 0 43 34 89 78 96
89 159 143 170 143 4 0 20 9 35 20 34 24 39 57 45 289 3 84 6 156 9 158 10 10
64 -28 69 -49 6 -24 13 -97 22 -237 3 -46 8 -94 11 -106 6 -24 -27 -50 -134
-104 -92 -46 -162 -94 -206 -140 l-39 -40 18 -35 19 -35 -54 -48 c-29 -26 -74
-60 -100 -75 -63 -36 -140 -122 -140 -157 0 -15 5 -32 11 -38 12 -12 -45 -71
-102 -105 -17 -11 -63 -50 -101 -87 -62 -61 -69 -72 -66 -102 2 -27 8 -35 26
-37 18 -3 37 11 81 60 32 35 77 77 100 93 23 17 69 51 103 78 33 26 64 47 69
47 5 0 23 13 41 29 18 15 60 43 93 60 33 18 92 50 130 72 132 74 221 117 258
124 68 13 107 61 75 93 -18 18 -45 15 -118 -12 -64 -23 -220 -102 -272 -138
-14 -10 -32 -18 -39 -18 -7 0 -25 -12 -41 -27 -15 -14 -31 -24 -34 -20 -9 9
46 55 75 62 13 3 45 20 70 38 25 17 58 39 72 47 59 34 93 57 135 88 40 30 44
37 44 77 0 39 4 46 30 60 41 21 84 19 172 -11 l78 -25 -22 -30 c-20 -27 -21
-33 -10 -82 30 -128 51 -186 90 -247 33 -50 42 -73 40 -100 -3 -35 -3 -35 -68
-46 -36 -6 -101 -22 -145 -37 -44 -15 -116 -38 -160 -51 -110 -34 -265 -91
-314 -115 -22 -12 -47 -21 -56 -21 -9 0 -42 -13 -74 -29 -31 -15 -80 -36 -108
-45 -59 -20 -76 -36 -71 -68 4 -33 53 -29 153 12 410 168 704 263 884 286 66
9 129 23 146 33 34 19 44 55 22 79 -8 9 -18 28 -22 41 -6 21 -5 23 11 15 11
-5 70 -9 132 -9 l114 0 29 33 c22 24 29 42 29 72 l0 40 -175 0 -175 0 0 30 c0
34 -23 96 -45 120 -12 14 -35 80 -65 188 -18 68 -63 109 -144 131 -87 24 -111
47 -109 104 6 241 16 363 33 382 10 11 41 90 70 175 51 154 76 205 138 281 30
38 32 46 32 118 0 58 -7 98 -28 162 -16 46 -39 138 -52 204 -21 110 -26 123
-60 160 -20 22 -51 60 -67 83 -33 47 -107 107 -121 98 -21 -13 -34 12 -27 52
5 35 13 45 48 65 23 13 56 28 72 32 17 4 151 9 298 10 l268 3 57 63 c31 35 87
96 124 136 38 40 68 77 68 82 0 6 43 53 95 105 l95 95 0 90 c0 49 -4 92 -9 96
-5 3 -19 34 -30 68 -15 45 -33 75 -62 103 -52 50 -124 159 -205 309 -14 28
-40 68 -56 90 -61 83 -99 151 -105 189 -3 23 -16 49 -30 62 -12 12 -47 68 -76
125 -103 200 -162 282 -298 413 -100 97 -254 207 -349 250 -66 30 -141 36
-595 52 -204 6 -320 24 -435 66 -81 30 -93 31 -255 34 -159 2 -175 1 -240 -22z
m359 -74 c31 -10 69 -28 84 -38 39 -27 184 -74 277 -88 54 -9 176 -12 380 -11
295 2 301 2 345 -21 84 -42 116 -61 262 -155 26 -16 52 -42 58 -58 7 -15 43
-57 81 -94 38 -36 69 -71 69 -79 0 -7 8 -24 19 -37 10 -13 48 -82 85 -154 37
-71 73 -137 80 -145 7 -8 30 -46 52 -85 21 -38 46 -81 54 -96 19 -33 79 -132
102 -167 10 -15 26 -44 38 -64 11 -20 33 -56 49 -80 16 -24 46 -74 66 -113 21
-38 53 -93 72 -122 18 -28 33 -55 33 -60 0 -5 16 -32 35 -59 19 -27 35 -55 35
-62 0 -7 -14 -26 -30 -41 -17 -15 -34 -39 -38 -52 -4 -13 -66 -81 -137 -151
l-130 -126 -90 -7 c-49 -3 -108 -8 -130 -10 -63 -7 -307 -25 -338 -25 l-29 0
7 113 c4 61 8 113 9 114 1 1 85 5 186 9 l185 7 -24 -27 c-14 -14 -40 -28 -60
-31 -169 -27 -219 -57 -170 -101 16 -14 33 -16 109 -12 49 3 96 10 102 16 7 6
31 13 53 17 45 8 139 66 149 91 3 8 6 44 6 78 0 52 -4 66 -23 84 -40 38 -128
54 -316 59 -243 7 -263 -1 -276 -103 -15 -123 -35 -189 -121 -414 -20 -52 -46
-123 -58 -157 -15 -44 -26 -63 -38 -63 -10 0 -37 -5 -61 -12 -64 -17 -93 -4
-172 73 -39 38 -76 69 -81 69 -5 0 -19 20 -30 43 -16 32 -35 49 -77 72 -82 45
-127 72 -172 105 -22 17 -56 38 -75 47 -19 9 -42 22 -50 29 -8 6 -49 23 -90
37 -41 14 -100 35 -130 46 -93 33 -335 90 -436 102 -137 16 -645 6 -744 -14
-121 -26 -352 -87 -385 -102 -16 -7 -43 -16 -60 -20 -39 -9 -120 -41 -167 -66
l-38 -20 0 35 c0 45 41 186 79 274 16 37 32 82 36 101 4 18 16 53 27 77 23 54
36 129 39 230 l2 76 73 73 c39 41 87 81 106 91 18 9 52 33 75 53 23 20 56 47
73 60 18 13 37 35 43 48 8 18 15 22 31 17 48 -15 79 -12 103 12 20 20 23 33
23 93 0 76 -10 91 -63 91 -21 0 -29 -10 -53 -64 -26 -60 -29 -63 -42 -45 -8
11 -25 19 -42 19 -24 0 -31 5 -35 28 -4 15 -20 57 -38 95 -29 62 -33 67 -63
67 -27 0 -34 -5 -43 -30 -5 -16 -12 -30 -14 -30 -2 0 -16 17 -30 38 -22 31
-27 52 -33 135 -7 104 -15 120 -61 120 -46 0 -66 -37 -61 -113 3 -67 26 -115
88 -192 14 -17 37 -52 51 -77 23 -41 30 -46 65 -49 48 -4 54 -13 54 -79 0 -42
-4 -54 -20 -63 -24 -13 -93 -74 -177 -157 -54 -54 -83 -75 -83 -59 0 2 -4 25
-9 52 -5 27 -15 103 -21 168 -14 148 -39 231 -82 274 -28 30 -37 33 -82 31
l-50 -3 -1 97 c0 53 4 97 9 97 18 0 152 68 165 83 7 9 59 39 116 66 57 27 181
101 277 164 l173 115 215 7 c118 3 219 10 225 14 5 5 63 11 127 14 98 5 122
10 146 27 85 63 269 87 376 50z m-283 -2040 c193 -33 367 -85 504 -151 90 -44
93 -47 71 -99 -4 -11 9 -32 39 -63 24 -26 41 -47 35 -47 -5 0 -12 5 -15 10 -3
6 -22 10 -41 10 -31 0 -34 -3 -34 -29 0 -16 6 -34 14 -40 7 -6 21 -38 30 -70
11 -41 23 -61 41 -71 19 -10 23 -18 18 -42 -7 -34 14 -60 72 -91 35 -19 37
-22 18 -25 -16 -2 -23 -10 -23 -25 0 -31 23 -72 39 -72 23 0 24 -23 2 -30 -43
-13 -16 -87 36 -100 16 -3 38 -15 49 -26 15 -14 32 -19 55 -17 30 3 35 7 39
36 3 22 13 37 30 45 19 9 26 23 30 52 3 22 12 54 21 70 9 17 22 48 29 70 16
52 30 69 44 55 16 -16 36 -12 101 20 58 28 84 32 53 7 -9 -6 -28 -30 -42 -51
-24 -36 -26 -46 -26 -162 l0 -122 38 -19 c50 -24 94 -112 100 -200 4 -57 2
-63 -15 -63 -17 0 -18 7 -15 68 4 62 2 71 -23 100 -19 23 -35 32 -56 32 -26 0
-29 -3 -29 -34 0 -19 5 -36 12 -38 8 -3 13 -31 13 -85 2 -133 32 -156 150
-112 30 11 62 30 70 42 22 31 18 111 -9 197 -13 41 -28 91 -33 110 -6 25 -18
40 -43 52 -62 31 -62 55 -1 149 30 47 40 55 56 48 11 -4 40 -8 64 -8 37 -1 42
-3 35 -18 -20 -47 -16 -159 10 -260 34 -132 34 -176 -1 -226 -15 -21 -35 -43
-45 -48 -10 -5 -31 -29 -46 -52 -24 -38 -27 -51 -27 -128 0 -96 10 -117 52
-113 16 1 34 2 41 3 23 2 49 83 56 171 4 52 12 91 21 100 8 9 15 24 15 33 0
10 8 17 21 17 38 0 52 59 46 195 -6 143 -31 233 -79 283 l-32 32 40 0 39 0 33
-137 c28 -119 32 -156 32 -269 0 -124 -1 -133 -25 -165 -13 -19 -29 -43 -34
-54 -5 -12 -16 -27 -26 -35 -23 -19 -45 -65 -45 -95 0 -14 -11 -43 -25 -65
-14 -22 -25 -43 -25 -48 0 -5 -11 -19 -25 -32 -14 -13 -25 -34 -25 -47 0 -21
-3 -22 -47 -16 -65 8 -77 15 -98 62 -10 23 -24 41 -32 41 -8 0 -13 13 -13 38
0 22 -12 60 -29 92 -16 31 -34 83 -40 117 -6 33 -25 100 -42 149 -24 68 -32
113 -36 189 -5 94 -4 104 21 153 29 58 35 132 12 152 -8 6 -25 10 -38 8 -18
-2 -24 -13 -33 -59 -7 -31 -26 -82 -43 -113 -32 -55 -32 -57 -32 -196 0 -152
20 -260 65 -350 12 -25 28 -63 35 -85 18 -57 75 -169 95 -185 38 -32 45 -64
45 -223 0 -146 -12 -223 -40 -262 -4 -5 -13 -28 -20 -50 -10 -30 -58 -85 -192
-224 -99 -101 -190 -200 -203 -220 -12 -20 -45 -62 -71 -93 -27 -31 -83 -105
-124 -164 -82 -116 -279 -336 -389 -433 -38 -33 -72 -61 -76 -61 -4 0 -24 -15
-44 -32 -20 -18 -48 -41 -61 -50 -14 -10 -45 -32 -70 -50 -63 -45 -345 -183
-402 -197 -79 -19 -113 -43 -113 -80 0 -24 -3 -30 -15 -25 -8 3 -34 12 -58 20
-23 8 -61 26 -85 39 -68 39 -108 56 -159 68 -35 9 -48 17 -48 29 0 14 8 18 40
18 45 0 58 16 40 49 -10 20 -49 50 -129 98 -72 44 -133 107 -191 197 -32 50
-72 107 -89 127 -17 20 -31 40 -31 43 0 7 -55 90 -73 111 -5 6 -18 26 -30 47
-19 32 -90 146 -117 188 -5 8 -16 31 -25 50 -8 19 -19 42 -25 50 -19 28 -77
195 -90 256 -8 40 -11 112 -8 205 4 130 8 154 38 244 18 55 42 112 53 127 11
15 21 40 23 55 1 15 2 31 3 36 1 4 21 7 45 7 25 0 57 5 73 11 15 6 43 12 61
14 40 4 41 -7 7 -81 -41 -90 -50 -138 -36 -209 6 -34 11 -94 11 -132 0 -67 -1
-71 -35 -102 -23 -20 -35 -41 -35 -57 0 -25 -22 -73 -48 -106 -28 -34 -21 -80
21 -138 57 -77 178 -200 198 -200 58 0 44 95 -24 169 l-41 45 24 7 c14 4 50 8
80 8 85 2 97 8 132 70 17 31 43 71 57 89 18 25 26 50 29 93 4 53 7 59 27 59
12 0 30 9 40 20 25 28 36 25 24 -6 -5 -15 -12 -42 -15 -60 l-5 -34 89 0 c53 0
107 6 133 15 38 13 42 13 25 0 -11 -8 -40 -22 -65 -31 -137 -47 -259 -117
-382 -218 -62 -52 -73 -71 -67 -127 2 -26 8 -35 25 -37 26 -4 86 47 103 88 23
56 243 182 410 235 30 10 60 21 65 25 6 5 33 15 61 23 71 21 190 83 244 127
25 20 55 42 68 49 17 9 22 20 22 51 0 38 -2 40 -29 40 -17 0 -33 -5 -36 -10
-8 -13 -166 -118 -191 -126 -11 -4 -27 -14 -36 -22 -22 -18 -24 -9 -3 16 66
77 110 122 121 122 8 0 21 11 30 25 16 25 17 25 169 25 84 0 160 3 169 6 23 9
20 56 -7 95 l-23 34 -103 0 c-98 0 -105 1 -114 23 -13 28 -44 36 -101 28 -39
-6 -54 -2 -115 30 -59 31 -76 35 -108 30 -21 -4 -54 -7 -75 -7 -53 1 -63 -17
-49 -86 21 -105 26 -100 -91 -105 -75 -4 -116 -10 -149 -25 -49 -22 -47 -19
-36 -108 2 -17 -5 -20 -51 -23 -45 -3 -56 0 -71 19 -16 20 -22 21 -60 12 -52
-14 -64 -3 -81 66 -9 38 -9 63 0 108 20 95 37 154 65 223 43 102 55 163 55
270 0 130 -16 171 -75 200 -36 17 -48 19 -66 10 -18 -10 -21 -18 -16 -49 l5
-37 -89 4 c-77 4 -89 2 -89 -12 0 -11 -9 -16 -26 -16 -62 0 -104 -52 -104
-126 0 -31 3 -34 28 -34 24 0 32 7 48 43 18 40 21 42 69 45 75 5 163 -25 186
-62 11 -17 19 -36 19 -42 0 -6 -36 -18 -79 -27 -44 -9 -100 -25 -125 -37 -25
-11 -49 -20 -54 -20 -13 0 -49 -42 -57 -68 -10 -33 -23 -18 -31 36 -4 26 -19
81 -34 122 -30 82 -46 168 -55 303 -4 57 -3 87 4 87 5 0 70 -9 143 -19 73 -11
156 -21 183 -23 50 -3 50 -3 53 29 5 47 -21 88 -70 111 -24 11 -102 31 -175
44 l-132 23 4 35 c2 19 7 92 10 163 3 85 12 153 26 205 12 42 28 100 35 127
36 131 61 156 239 243 116 57 230 96 400 137 83 20 170 45 194 56 24 11 46 18
48 16 2 -2 -51 -57 -117 -122 -97 -96 -120 -124 -120 -147 0 -24 4 -28 30 -28
25 0 51 20 153 119 136 133 163 147 283 156 38 3 108 7 156 11 57 4 91 11 99
20 16 20 43 18 240 -16z m-615 -1878 c7 -10 39 -36 73 -57 51 -33 61 -44 61
-67 0 -62 -90 -103 -275 -127 -39 -5 -78 -12 -87 -16 -10 -4 -18 -3 -18 2 0 5
34 17 75 27 41 10 89 28 107 42 18 13 46 32 61 41 15 10 30 28 33 41 7 27 -10
74 -37 98 -19 17 -25 34 -11 34 4 0 12 -8 18 -18z m-546 -382 c0 -17 -28 -69
-71 -132 -22 -32 -39 -62 -39 -68 0 -5 -13 -10 -28 -10 l-28 0 1 75 0 75 40
21 c40 21 104 47 118 48 4 1 7 -4 7 -9z m1209 -1397 c-31 -32 -85 -94 -122
-138 -132 -160 -131 -158 -215 -193 -45 -19 -100 -50 -126 -73 -40 -35 -46
-46 -46 -80 l0 -39 -76 0 -76 0 7 73 c12 143 22 157 103 138 26 -6 76 -12 112
-14 65 -2 65 -2 68 26 3 22 -1 30 -16 34 -11 3 -23 15 -26 28 -3 13 -14 26
-24 28 -9 3 6 5 33 6 37 1 53 6 61 19 7 10 40 29 74 43 42 16 65 31 71 47 5
12 17 25 26 28 72 23 145 60 173 89 19 19 39 35 44 35 6 0 -15 -26 -45 -57z
m-2059 -318 c7 -8 18 -15 25 -15 7 0 15 -9 18 -19 3 -13 17 -22 42 -27 25 -4
42 -15 54 -35 34 -56 69 -74 153 -78 46 -2 107 3 150 13 40 8 127 22 193 31
66 9 170 29 230 45 137 36 273 60 343 60 65 0 61 -16 -6 -25 -26 -4 -69 -15
-97 -26 -27 -10 -91 -28 -142 -39 -105 -22 -136 -36 -176 -78 -34 -35 -33 -72
1 -87 44 -20 17 -34 -83 -44 -54 -5 -60 -8 -63 -30 -6 -41 20 -51 137 -51 113
0 117 1 249 87 l52 34 0 55 0 54 34 0 c18 0 57 7 85 17 37 12 55 13 62 6 18
-18 -4 -66 -37 -83 -16 -8 -43 -25 -61 -38 -17 -12 -116 -64 -220 -114 l-188
-93 -158 -3 -158 -4 -41 34 c-22 18 -136 128 -252 244 -208 208 -212 212 -251
210 -35 -1 -40 -5 -43 -29 -2 -16 4 -35 17 -49 12 -12 21 -25 21 -30 0 -11
-307 -10 -314 1 -8 12 31 35 85 50 25 7 68 26 95 42 44 26 58 29 140 29 69 0
95 -4 104 -15z"/>
<path d="M4483 6864 c-21 -9 -26 -69 -10 -126 9 -29 21 -82 27 -118 29 -170
49 -198 103 -142 27 28 27 30 27 164 l0 136 -33 44 c-27 35 -39 43 -67 45 -19
1 -40 0 -47 -3z"/>
<path d="M5125 6851 c-39 -24 -108 -98 -128 -136 -36 -68 -67 -145 -67 -164 0
-11 -6 -35 -14 -53 -7 -18 -20 -49 -28 -68 -14 -33 -15 -32 -22 77 -3 66 -15
139 -27 178 -20 64 -21 66 -51 63 -55 -5 -66 -34 -76 -203 -6 -82 -16 -171
-24 -197 -16 -56 -45 -90 -69 -83 -14 5 -18 -2 -24 -35 -8 -49 -2 -59 26 -42
15 10 24 10 34 2 8 -6 26 -10 41 -8 21 2 33 14 51 47 l23 44 0 -39 c0 -105 88
-76 151 49 12 23 27 49 34 57 7 8 30 69 50 135 33 108 68 182 100 210 6 6 28
32 48 58 28 37 37 58 37 88 0 45 -16 51 -65 20z"/>
<path d="M3973 6770 c-37 -45 -30 -73 39 -177 34 -51 93 -112 251 -261 69 -65
104 -92 122 -92 24 0 25 3 25 59 0 54 -3 63 -41 107 -22 27 -56 77 -75 111
-21 36 -80 109 -142 173 -119 122 -140 131 -179 80z"/>
<path d="M3664 6753 c-3 -10 -10 -29 -14 -43 -40 -117 -26 -284 25 -304 53
-20 65 2 65 123 1 36 7 84 15 106 21 56 19 78 -10 109 -28 30 -73 35 -81 9z"/>
<path d="M5675 6525 c-38 -19 -90 -41 -114 -50 -27 -9 -57 -30 -78 -55 -19
-22 -40 -40 -47 -40 -23 0 -48 -37 -53 -79 l-6 -41 41 0 c32 0 55 9 102 42 33
22 63 38 66 35 4 -3 -23 -37 -59 -74 -72 -75 -126 -168 -134 -231 -7 -53 5
-68 65 -77 26 -4 52 -10 57 -13 6 -4 25 -7 43 -7 24 -1 38 5 46 19 7 12 25 41
40 66 51 86 106 154 195 244 50 50 91 99 91 108 0 11 10 18 28 20 23 3 28 8
30 37 l3 34 -48 -6 -48 -6 3 40 c6 58 -9 69 -87 69 -54 -1 -78 -7 -136 -35z"/>
<path d="M6176 6479 c-22 -5 -47 -16 -56 -24 -9 -8 -20 -15 -24 -15 -14 0
-258 -236 -309 -297 -113 -138 -118 -145 -115 -176 5 -47 32 -42 84 16 26 29
54 63 63 77 21 32 147 159 186 187 24 16 60 25 162 37 73 8 143 20 155 27 48
24 78 62 78 96 0 28 -6 35 -39 53 -48 24 -132 33 -185 19z"/>
<path d="M3997 6353 c-4 -3 -7 -35 -7 -70 0 -80 19 -103 85 -103 l45 0 0 65 0
65 -50 25 c-52 26 -63 29 -73 18z"/>
<path d="M4959 6301 c-19 -16 -64 -155 -54 -170 19 -32 158 79 175 141 6 17 7
34 5 37 -13 12 -108 7 -126 -8z"/>
<path d="M5220 6220 c-24 -47 -39 -56 -110 -65 -67 -8 -70 -10 -70 -38 0 -27
31 -43 123 -62 101 -22 114 -20 137 18 28 46 29 162 1 177 -38 20 -60 12 -81
-30z"/>
<path d="M6123 6216 c-15 -13 -48 -33 -73 -46 -25 -12 -61 -37 -80 -55 -19
-18 -48 -35 -63 -39 -17 -4 -31 -16 -37 -32 -6 -14 -37 -50 -70 -81 -56 -51
-60 -58 -60 -99 0 -54 16 -64 104 -64 47 0 87 8 143 28 85 31 168 48 159 33
-4 -5 -46 -26 -95 -46 -108 -45 -141 -76 -148 -139 l-6 -46 92 0 c50 0 135 6
189 14 53 8 156 17 227 20 109 4 119 3 61 -5 -84 -11 -147 -44 -160 -82 -8
-22 -7 -30 4 -37 27 -17 163 -11 245 11 43 11 94 19 114 17 35 -3 35 -3 -29
-27 -58 -21 -87 -24 -275 -28 -194 -5 -212 -7 -232 -26 -30 -27 -29 -55 3 -67
60 -23 356 -7 492 27 19 4 22 1 22 -25 0 -68 108 -116 246 -110 l69 3 3 48 c5
82 -26 108 -142 121 -27 3 -50 7 -52 9 -2 2 29 14 69 26 82 26 107 44 107 76
0 16 -13 29 -47 47 -42 21 -49 30 -57 66 -8 40 -10 41 -65 53 -61 13 -405 17
-506 5 l-60 -7 50 25 c28 13 100 39 160 56 61 18 124 36 141 41 22 7 33 17 36
34 7 33 -26 103 -54 116 -13 5 -34 16 -48 24 -33 19 -213 19 -300 0 -36 -8
-90 -14 -120 -14 -46 0 -52 2 -36 12 10 7 34 22 53 35 20 13 49 26 67 29 44 8
77 27 110 62 44 46 31 61 -53 61 -58 0 -74 -4 -98 -24z"/>
<path d="M4095 5039 c-16 -10 -48 -24 -69 -30 -21 -6 -63 -28 -92 -50 -29 -21
-57 -39 -61 -39 -4 -1 -48 -38 -97 -84 -77 -72 -90 -89 -92 -120 -3 -33 -1
-36 24 -36 19 1 48 21 102 71 118 111 230 177 337 199 58 12 96 48 91 84 -3
18 -11 21 -58 23 -40 1 -63 -3 -85 -18z"/>
<path d="M4014 4886 c-69 -33 -115 -65 -189 -132 -160 -146 -242 -281 -170
-281 19 0 37 15 73 59 119 151 224 237 357 296 83 36 90 41 90 68 0 48 -50 45
-161 -10z"/>
<path d="M4195 4815 c-22 -13 -51 -29 -65 -35 -14 -5 -32 -14 -40 -20 -8 -5
-42 -23 -76 -39 -78 -39 -152 -104 -175 -156 -20 -43 -25 -120 -9 -130 5 -3
40 10 77 28 37 19 79 38 93 42 24 8 32 13 121 73 94 63 349 78 349 19 0 -32
50 -68 89 -65 34 3 36 5 39 44 3 34 -3 48 -32 83 -19 23 -38 56 -42 74 -4 22
-17 39 -41 55 -40 26 -67 28 -107 7 -40 -21 -49 -19 -68 15 -21 38 -57 39
-113 5z"/>
<path d="M4070 4098 c-88 -50 -186 -184 -178 -241 2 -17 11 -23 38 -25 33 -3
37 0 57 40 38 79 67 104 151 132 104 35 142 59 142 91 0 25 -1 25 -87 24 -69
0 -96 -5 -123 -21z"/>
<path d="M4683 4060 c-17 -10 -37 -29 -44 -41 -10 -20 -8 -25 12 -42 28 -23
88 -17 155 16 39 18 44 25 44 54 l0 33 -67 0 c-50 0 -77 -5 -100 -20z"/>
<path d="M4232 3980 c-13 -6 -59 -43 -103 -82 -45 -41 -108 -86 -142 -103 -58
-28 -62 -32 -65 -67 l-3 -38 41 0 c50 0 90 20 155 77 28 24 58 50 68 59 10 8
15 19 12 24 -4 6 0 10 7 10 8 0 31 9 53 20 22 11 47 20 57 20 27 0 68 22 69
37 5 50 7 48 -61 50 -36 1 -75 -2 -88 -7z"/>
<path d="M3718 3933 c-30 -35 -37 -61 -34 -125 6 -116 68 -208 141 -208 69 0
78 15 46 78 -23 46 -68 174 -79 227 -6 33 -12 41 -33 43 -15 2 -32 -4 -41 -15z"/>
<path d="M4673 3839 c-46 -13 -50 -28 -16 -59 39 -35 137 -56 201 -44 45 9 47
10 47 44 0 31 -3 35 -40 46 -59 16 -156 23 -192 13z"/>
<path d="M4324 3793 c-15 -19 -46 -35 -100 -53 l-79 -25 -3 -42 c-3 -43 -3
-43 30 -43 46 0 144 35 193 68 37 26 40 32 40 72 0 43 -1 45 -30 47 -22 2 -36
-5 -51 -24z"/>
<path d="M4600 3234 c0 -17 17 -44 54 -82 29 -31 56 -68 59 -82 3 -14 9 -72
12 -130 9 -157 12 -170 39 -170 68 0 120 149 96 281 -23 125 -112 209 -221
209 -35 0 -39 -3 -39 -26z"/>
<path d="M5410 2794 c-11 -26 -20 -54 -20 -63 -1 -46 -32 -155 -52 -182 -80
-105 -100 -121 -241 -199 -74 -41 -82 -48 -82 -75 0 -27 3 -30 37 -33 61 -5
183 69 298 181 49 48 88 113 109 180 11 38 28 78 36 90 9 14 15 44 15 84 l0
63 -40 0 c-37 0 -40 -2 -60 -46z"/>
<path d="M3479 2243 c-15 -38 -18 -213 -4 -293 11 -70 62 -162 110 -197 13
-10 44 -32 67 -50 77 -56 138 -73 269 -73 144 0 193 15 315 99 123 83 397 358
392 392 -5 37 -61 39 -99 3 -16 -15 -29 -36 -29 -45 0 -11 -9 -19 -22 -21 -13
-2 -32 -17 -43 -34 -11 -17 -32 -38 -47 -47 -16 -9 -28 -25 -28 -37 0 -13 -7
-20 -18 -20 -10 0 -29 -12 -43 -26 -24 -27 -116 -89 -199 -136 -89 -51 -250
-56 -332 -11 -18 10 -44 20 -57 23 -14 3 -24 9 -22 13 1 4 -8 20 -21 36 -29
34 -40 70 -72 240 -29 152 -50 204 -83 209 -17 3 -26 -4 -34 -25z"/>
<path d="M644 3716 c-3 -13 -19 -36 -35 -52 -16 -15 -29 -32 -29 -38 0 -5 -18
-31 -40 -58 -47 -54 -79 -121 -80 -160 0 -15 -7 -31 -16 -36 -24 -13 -36 -151
-32 -375 3 -185 4 -194 31 -257 46 -105 61 -149 56 -155 -3 -3 -19 2 -36 10
-28 14 -53 64 -53 106 0 8 -6 26 -14 40 -7 14 -16 39 -20 55 -4 16 -20 50 -36
76 -16 26 -36 71 -44 100 -22 78 -46 141 -61 158 -7 8 -18 31 -24 51 -19 58
-43 73 -123 77 -43 3 -73 0 -77 -6 -3 -6 -6 -113 -5 -239 1 -202 3 -237 23
-305 21 -72 93 -251 111 -273 4 -5 37 -69 73 -140 53 -106 73 -135 103 -155
20 -14 56 -54 80 -90 23 -36 67 -92 98 -126 31 -33 56 -67 56 -75 0 -8 16 -61
34 -119 44 -133 76 -275 83 -365 6 -86 25 -173 65 -290 18 -53 31 -113 31
-145 1 -52 0 -56 -32 -75 -46 -27 -170 -144 -206 -196 -17 -23 -48 -62 -71
-88 -45 -51 -68 -100 -70 -146 -1 -44 3 -46 44 -29 40 16 72 49 102 106 29 54
35 52 32 -8 -3 -48 -2 -54 16 -54 10 0 30 9 43 21 l24 21 5 -79 c7 -98 23
-133 61 -133 68 0 76 17 90 193 6 90 15 142 29 172 11 24 20 48 20 53 0 4 13
26 30 48 26 35 29 47 30 111 0 49 -8 96 -25 150 -42 134 -75 271 -100 417 -13
78 -38 187 -54 243 -17 56 -31 108 -31 114 0 7 -18 49 -40 93 -32 65 -57 98
-130 170 -84 82 -131 144 -170 221 -9 17 -25 34 -36 39 -13 6 -48 66 -97 166
-42 86 -77 160 -77 164 0 4 -6 22 -14 39 -34 76 -56 214 -56 347 0 101 3 131
13 128 20 -7 64 -106 82 -188 23 -98 45 -139 98 -186 35 -31 47 -51 60 -100
21 -76 22 -74 -7 -74 -29 0 -56 -24 -56 -50 0 -15 11 -18 75 -22 l75 -3 55
-55 c31 -30 59 -68 64 -85 7 -27 4 -34 -36 -72 -32 -32 -43 -50 -43 -73 0 -47
38 -40 98 18 l50 49 140 10 c156 12 197 25 197 62 0 29 -46 49 -115 50 -102 2
-114 8 -143 69 -36 76 -50 98 -80 130 -13 15 -35 47 -48 72 -23 43 -23 55 -27
330 l-4 285 42 80 c22 44 48 105 56 134 7 30 18 59 24 65 5 5 10 18 10 28 0
15 8 18 44 18 24 0 48 -6 52 -12 13 -17 9 -140 -5 -209 -9 -43 -19 -61 -41
-78 -31 -23 -42 -71 -16 -71 18 0 26 -72 26 -242 l0 -138 -35 0 c-28 0 -35 -4
-35 -19 0 -22 19 -31 64 -31 52 0 102 -62 190 -238 30 -61 59 -112 63 -115 4
-3 51 -8 103 -11 52 -4 110 -12 128 -17 51 -17 110 -59 132 -96 21 -35 63 -52
89 -36 9 6 17 25 19 44 2 27 -3 40 -23 59 -52 49 -157 103 -242 125 -32 8 -72
22 -89 31 -39 21 -80 95 -89 159 -4 28 -9 61 -12 75 -2 14 -7 87 -10 162 -7
172 -4 181 117 340 11 14 20 38 20 52 0 22 -5 26 -28 26 -31 0 -71 -37 -118
-109 -74 -112 -90 -164 -111 -338 -4 -35 -9 -43 -25 -43 -20 0 -20 4 -13 158
3 86 11 198 16 247 5 50 9 156 9 236 0 126 -2 148 -17 161 -23 20 -87 38 -135
38 -31 0 -39 -4 -44 -24z"/>
<path d="M1495 3691 c-143 -52 -223 -90 -272 -130 -18 -14 -46 -37 -63 -50
-26 -20 -31 -29 -28 -60 4 -50 28 -51 80 -3 58 53 120 92 193 121 96 38 259
91 269 88 5 -2 9 -24 9 -49 0 -71 -29 -111 -110 -151 -69 -35 -76 -38 -150
-57 -35 -9 -43 -15 -43 -34 0 -13 7 -29 15 -36 8 -7 15 -18 15 -24 0 -18 -81
-138 -115 -171 -38 -36 -65 -79 -65 -100 0 -9 7 -29 15 -45 9 -17 20 -67 26
-112 19 -155 28 -213 44 -265 15 -50 18 -53 49 -53 51 0 111 78 135 177 5 21
23 74 40 118 17 44 31 85 31 90 0 10 153 4 235 -10 88 -14 171 -38 194 -53 25
-18 72 -50 142 -96 24 -16 60 -43 79 -60 49 -43 104 -71 125 -62 14 5 17 14
12 47 -6 45 -49 99 -102 126 -30 16 -104 73 -196 151 -27 23 -51 42 -54 42 -2
0 -57 9 -122 20 -135 23 -353 28 -353 8 0 -6 -8 -21 -18 -32 -24 -27 -62 -118
-62 -149 0 -21 -4 -24 -26 -19 -19 3 -31 16 -46 51 -37 87 -36 96 18 154 27
30 69 81 93 115 48 69 141 159 187 182 40 19 74 51 74 67 0 8 10 27 21 43 19
25 21 36 15 101 -19 184 -63 202 -291 120z"/>
<path d="M5775 2230 c-82 -38 -155 -70 -162 -70 -18 0 -35 -38 -28 -62 6 -18
13 -20 51 -15 l43 4 -62 -40 c-34 -22 -91 -59 -127 -82 -85 -54 -99 -64 -151
-103 -24 -18 -55 -41 -68 -50 -13 -9 -48 -37 -77 -62 -28 -25 -69 -58 -90 -75
-68 -54 -247 -221 -363 -338 -122 -124 -133 -147 -66 -147 24 0 35 4 35 15 0
8 5 15 12 15 7 0 78 64 159 143 136 132 257 239 327 290 29 22 108 83 167 130
17 13 66 48 110 78 44 30 89 62 99 72 11 9 25 17 31 17 7 0 30 12 51 27 51 34
338 177 389 194 59 18 95 48 95 79 0 44 -16 50 -124 50 l-101 0 -150 -70z"/>
<path d="M6846 2181 c-10 -19 -33 -35 -68 -50 -29 -12 -62 -26 -73 -31 -11 -5
-45 -16 -75 -24 -61 -17 -130 -73 -130 -106 0 -11 14 -33 31 -50 25 -23 42
-30 75 -31 24 -1 49 -3 54 -4 6 -1 48 -3 94 -4 74 -1 88 -4 114 -26 20 -16 42
-25 65 -25 35 0 36 1 43 48 7 43 1 94 -27 256 -12 75 -13 76 -54 76 -28 0 -37
-6 -49 -29z"/>
<path d="M737 2174 c-10 -11 5 -38 45 -80 38 -40 53 -63 102 -155 26 -48 41
-59 82 -59 50 0 124 -50 216 -145 50 -52 101 -112 113 -133 67 -117 112 -165
147 -160 21 3 23 8 22 59 -1 65 -34 138 -92 204 -57 65 -174 166 -212 182
-118 50 -148 69 -153 93 -3 14 -19 43 -36 65 -40 52 -37 49 -100 95 -40 29
-64 40 -91 40 -20 0 -39 -3 -43 -6z"/>
<path d="M1348 2125 c-26 -14 -55 -25 -65 -25 -30 0 -63 -29 -63 -56 0 -28 7
-28 173 -17 l97 6 0 43 c0 75 -57 94 -142 49z"/>
<path d="M5650 1780 c-14 -4 -47 -18 -75 -30 -27 -13 -75 -33 -105 -44 -30
-12 -115 -52 -188 -89 -139 -71 -169 -99 -142 -132 20 -24 60 -17 145 26 211
108 256 129 340 158 105 37 135 55 135 79 0 39 -47 52 -110 32z"/>
<path d="M1685 1340 c-11 -18 37 -154 66 -188 16 -18 29 -43 29 -55 0 -37 22
-59 55 -55 28 3 30 6 33 50 4 62 -59 203 -106 236 -32 23 -67 29 -77 12z"/>
<path d="M1642 598 c-30 -19 -106 -50 -237 -98 -115 -43 -253 -81 -341 -95
-123 -20 -124 -21 -124 -62 l0 -35 63 5 c34 3 94 10 132 16 78 13 325 91 395
126 25 12 56 26 69 30 l24 7 -19 -30 c-10 -16 -38 -57 -60 -90 -50 -72 -96
-183 -92 -220 3 -24 7 -27 48 -30 34 -2 59 4 99 25 58 30 54 22 117 203 9 25
29 71 45 102 41 81 38 101 -15 138 -52 35 -60 35 -104 8z"/>
<path d="M314 356 c-10 -26 3 -246 18 -301 l13 -50 50 2 c28 0 55 2 62 2 11 1
15 24 27 156 3 28 8 62 12 78 4 18 2 27 -5 27 -7 0 -33 20 -60 45 -53 50 -106
68 -117 41z"/>
</g>
</svg>
