<?xml version="1.0" encoding="UTF-8" standalone="no"?>
<svg
   xmlns:dc="http://purl.org/dc/elements/1.1/"
   xmlns:cc="http://creativecommons.org/ns#"
   xmlns:rdf="http://www.w3.org/1999/02/22-rdf-syntax-ns#"
   xmlns:svg="http://www.w3.org/2000/svg"
   xmlns="http://www.w3.org/2000/svg"
   xmlns:sodipodi="http://sodipodi.sourceforge.net/DTD/sodipodi-0.dtd"
   xmlns:inkscape="http://www.inkscape.org/namespaces/inkscape"
   version="1.0"
   width="2443.000000pt"
   height="1373.000000pt"
   viewBox="0 0 2443.000000 1373.000000"
   preserveAspectRatio="xMidYMid meet"
   id="svg882"
   sodipodi:docname="epaulecolor.svg"
   inkscape:version="1.0.1 (3bc2e813f5, 2020-09-07)">
  <metadata
     id="metadata888">
    <rdf:RDF>
      <cc:Work
         rdf:about="">
        <dc:format>image/svg+xml</dc:format>
        <dc:type
           rdf:resource="http://purl.org/dc/dcmitype/StillImage" />
        <dc:title></dc:title>
      </cc:Work>
    </rdf:RDF>
  </metadata>
  <defs
     id="defs886" />
  <sodipodi:namedview
     pagecolor="#ffffff"
     bordercolor="#666666"
     borderopacity="1"
     objecttolerance="10"
     gridtolerance="10"
     guidetolerance="10"
     inkscape:pageopacity="0"
     inkscape:pageshadow="2"
     inkscape:window-width="1920"
     inkscape:window-height="1017"
     id="namedview884"
     showgrid="false"
     inkscape:zoom="0.40002047"
     inkscape:cx="1332.6244"
     inkscape:cy="870.50394"
     inkscape:window-x="-8"
     inkscape:window-y="-8"
     inkscape:window-maximized="1"
     inkscape:current-layer="svg882"
     inkscape:document-rotation="0" />
  <path
     style="fill:#d8115d;stroke:#000000;stroke-width:0.75px;stroke-linecap:butt;stroke-linejoin:miter;stroke-opacity:0;fill-opacity:0.75"
     d="m 643.0921,733.08747 c 0,-4.3747 0,-8.7495 0,-13.1243 0,-30.3613 2.4641,-63.3724 -1.8749,-93.7452 -0.7126,-4.988 -0.8867,-10.0584 -1.8749,-14.9992 -0.8049,-4.0244 -4.962,-3.4101 -5.6247,-9.3745 -0.4759,-4.2828 -2.3781,-23.3675 0,-28.1236 2.1829,-4.36582 8.0065,-5.72632 11.2494,-9.37455 2.4211,-2.72362 3.7148,-6.2709 5.6247,-9.37447 18.3729,-29.85593 0.9847,0.91957 16.8742,-33.74828 6.7552,-14.73878 16.0003,-28.26908 22.4988,-43.12283 1.8237,-4.16835 1.9575,-8.94232 3.7498,-13.12432 6.7072,-15.6501 16.5658,-34.2642 28.1236,-46.8726 3.2983,-3.59813 7.6012,-6.13163 11.2494,-9.37455 10.5725,-9.39773 18.13,-21.87795 29.9985,-29.99843 28.182,-19.2825 24.4297,-14.0898 52.4973,-28.12357 16.2004,-8.10015 29.4987,-16.03425 46.8726,-24.37373 4.2909,-2.05965 8.9918,-3.26332 13.1243,-5.62473 0.061,-0.0348 6.2212,-7.48251 9.3745,-9.37452 12.6731,-7.60388 26.446,-13.44226 39.373,-20.62395 6.3712,-3.53952 12.05,-8.37842 18.7491,-11.24942 2.929,-1.25532 6.2954,-1.05381 9.3745,-1.87491 9.3745,-2.49987 18.4964,-6.29622 28.1235,-7.49961 8.682,-1.08525 17.5351,0.79215 26.2487,0 3.6764,-0.33422 9.4175,-2.82311 13.1243,-3.74981 4.5184,-1.1296 10.4958,0.75058 14.9993,0 25.6615,-4.27693 56.2429,-6.00096 82.4957,1.8749 0.5987,0.17958 -0.5463,1.5714 0,1.87491 17.3674,9.64851 31.7339,15.61512 48.7475,26.24865 11.5806,7.23783 17.9634,14.1435 29.9985,20.62395 8.0235,4.3203 21.8328,11.85862 29.9985,14.99924 3.5481,1.36463 7.6082,0.78255 11.2494,1.87493 9.5466,2.86395 46.2144,19.1214 54.3722,29.99842 2.5836,3.44475 7.9492,8.8482 9.3745,13.12433 0.9476,2.84265 0,8.1966 0,11.24947 0,15.6003 -3.0741,35.77508 1.875,50.62238 2.4557,7.36732 0.8928,-1.69635 3.7497,1.87492 2.2765,2.84558 3.6033,6.34238 5.6247,9.37448 1.9955,2.99317 5.2035,3.3285 7.4997,5.6247 5.8468,5.84685 13.714,13.9107 18.749,20.62395 0.75,0.99997 -0.6933,2.70982 0,3.74985 2.3746,3.56182 3.8574,5.8398 5.6248,9.37447 2.9909,5.98193 7.3678,9.24285 11.2494,13.12433 2.5767,2.57685 3.6033,6.34245 5.6247,9.37455 5.6181,8.42723 7.3948,19.52933 13.1243,28.12358 7.5614,11.3421 12.4815,24.963 18.749,37.49807 6.03,12.0599 11.7923,17.1707 14.9993,29.9985 1.8749,7.4996 -0.9375,5.6247 0,11.2494 1.9061,11.4369 3.5102,24.9848 7.4996,35.6232 1.472,3.9255 4.192,7.3094 5.6247,11.2494 4.1181,11.3248 3.627,24.0053 7.4996,35.6232 2.3132,6.9397 4.6862,13.8715 7.4996,20.6239 0.3399,0.8159 1.7016,1.0083 1.875,1.875 0.9843,4.9218 -1.6147,12.0301 0,16.8741 3.378,10.1342 3.6689,24.8589 1.8748,35.6232 -2.1934,13.1609 -1.8185,7.2741 -5.6247,22.4988 -1.7232,6.8929 -1.0322,71.7099 0,76.8711 2.5992,12.9958 -0.677,26.6134 1.8749,39.3729 1.5788,7.8937 3.7498,10.4176 3.7498,18.7491 0,3.1611 3.8329,9.2915 1.8749,11.2494 -2.2095,2.2096 -4.8996,3.8913 -7.4996,5.6247 -1.0526,0.7018 -23.9347,1.4121 -26.2486,1.8749 -6.3254,1.2651 -12.1924,6.1883 -18.7491,7.4996 -7.3791,1.4759 -15.1344,0.7419 -22.4988,1.8749 -22.4141,3.4484 -6.2249,5.9784 -16.8741,7.4997 -11.0802,1.5828 -22.4086,2.4898 -33.7483,3.7497 -11.5612,1.2846 -34.8208,3.4818 -48.7475,0 -0.6063,-0.1515 0.6063,-1.7232 0,-1.8748 -2.4252,-0.6063 -5.011,0.237 -7.4997,0 -31.8531,-3.0337 -31.7424,-3.7499 -61.8718,-3.7499 -29.3735,0 -58.747,0 -88.1204,0 -12.5614,0 -26.9782,-2.0658 -39.3731,0 -6.2867,1.0479 -12.4145,3.046 -18.749,3.7499 -4.3076,0.4786 -29.2628,1.0047 -37.4981,3.7498 -18.1126,6.0375 38.7726,-2.503 -26.2486,5.6247 -18.8955,2.3619 -39.1262,0 -58.1221,0 -12.7389,0 -35.5295,2.8358 -46.8726,0 -0.6063,-0.1516 0.442,-1.433 0,-1.8749 -1.7676,-1.7677 -5.0744,0.6063 -7.4996,0 -12.3139,-3.0785 -23.0457,-9.4527 -35.6232,-11.2495 -11.3551,-1.6221 -62.4036,-2.2293 -67.4965,-5.6247 -2.2062,-1.4708 -3.142,-4.6937 -5.6247,-5.6247 -4.8255,-1.8096 -11.3551,-0.1056 -14.9993,-3.7498 -3.7208,-3.7208 8.8791,-0.5926 -3.7498,-3.7498 -1.2126,-0.3031 -2.6318,0.559 -3.7498,0 -0.559,-0.2795 0.4419,-1.4329 0,-1.8749 -0.7633,-0.7633 -6.2994,-3.1497 -7.4996,-3.7498 -1.609,-0.8045 -3.0589,1.5797 -3.7498,-1.8749 -2.332,-11.6599 1.1332,-23.7555 1.8749,-35.6232 1.1285,-18.0566 -3.3378,-41.6393 0,-59.9969 3.2577,-17.9175 5.4099,-23.2014 3.7498,-43.1228 -0.052,-0.6228 -1.3549,0.3467 -1.8749,0 -9.3274,-6.2183 -0.4308,-0.8617 -3.7498,-7.4996 -0.2795,-0.559 -1.5954,0.559 -1.8749,0 -1.1524,-2.3048 -1.2499,-4.9997 -1.8749,-7.4996 -1.8749,-4.3748 -3.2633,-8.9919 -5.6247,-13.1244 -0.3101,-0.5426 -1.3159,0.2796 -1.8749,0 -3.9527,-1.9763 -6.0488,-6.4644 -9.3745,-9.3745 -8.1097,-7.0959 -18.9864,-16.9136 -29.9985,-18.749 -17.7169,-2.9529 -33.4148,10.7082 -39.373,-13.1244 z"
     id="path403" />
</svg>
