<svg xmlns="http://www.w3.org/2000/svg" width="501.995" height="148.137" viewBox="0 0 501.995 148.137">
  <g id="Netto_France_logo" transform="translate(-53 -62.863)">
    <g id="g14" transform="translate(0 274)">
      <path id="path4" d="M79-205.8c-.9,4.6-13.4,71.8-16,86.3-1.3,7.5-6.8,37-8.5,45.8-.8,4.2-1.5,8.4-1.5,9.2,0,1.3,2.2,1.5,15.2,1.3l15.3-.3L85.1-72c1-4.7,2.7-13.9,3.9-20.5l4-22c1-5.5,3-16.5,4.4-24.5,1.5-8,2.9-15.6,3.2-16.9.4-1.7,6.2,9,24.3,45l23.8,47.4h26.6l.8-2.5c.4-1.4,1.6-7.7,2.8-14,1.1-6.3,3.7-20.1,5.6-30.5,1.9-10.5,4.4-24,5.6-30,1.1-6.1,2.8-15.5,3.9-21,1-5.5,2.6-14.1,3.5-19,.9-5,2.5-13.5,3.6-18.9,1-5.4,1.9-10.3,1.9-10.7,0-.5-6.9-.9-15.4-.9H172.1l-1,5.2c-.9,4.6-3.5,18.9-13.2,73.3-1.2,6.6-2.5,12.6-2.9,13.3-.4.8-10.2-17.9-23.8-45.2L108.1-211h-28Z" fill="#e00018"/>
      <path id="path6" d="M345.1-206.2c-.5,2.7-1.5,7.8-2.1,11.3s-1.6,9.3-2.3,12.9l-1.2,6.5-9.3.3c-5,.1-9.2.6-9.2,1s-.6,3.6-1.4,7.2-1.7,8.9-2.1,11.7l-.7,5.3H326c8.4,0,9.1.1,8.5,1.9-.3,1-1.2,5.4-2,9.7-.7,4.3-3.2,17.8-5.5,29.9-6.6,35.4-8,42.9-8,44.2,0,1,3.5,1.3,14.4,1.3h14.5l1.1-5.3c.6-2.8,2.6-14,4.6-24.7,1.9-10.7,5.1-27.7,7-37.8,1.9-10,3.4-18.5,3.4-18.7,0-.3,6.1-.5,13.5-.5,10.3,0,13.5.3,13.5,1.3,0,1.2-3.1,18.3-6.9,38.2-1.1,5.5-2.7,14.3-3.7,19.5-.9,5.2-2.5,13.5-3.4,18.3-1.3,6.7-1.5,9-.6,9.3.7.3,7.2.3,14.6.2l13.4-.3.8-3c.4-1.7,2.6-13.1,4.9-25.5,6.6-36.4,10-54.4,10.5-56.2.4-1.5,2.1-1.8,10.2-2l9.7-.3,1.6-8.5c.9-4.7,1.9-10.2,2.3-12.3l.7-3.7h-10c-7.6,0-9.9-.3-9.6-1.3.3-.6,1.6-7.3,2.9-14.7,1.4-7.4,2.8-15,3.2-16.8l.7-3.2H403.1l-1,3.7c-1,4.3-4.9,25.5-5.3,29.3l-.3,2.5-13.7.3c-7.6.1-13.8-.1-13.8-.5,0-1.3,2.9-17.3,4.5-25C375.8-212,377-211,360.6-211H346.2Z" fill="#e00018"/>
      <path id="path8" d="M252-180.5c-25.1,5.4-45.8,24.1-54.1,49-3.2,9.5-3.2,27.1-.1,35.7C203.9-78.9,216-69,235.2-65.2c6.9,1.3,9.3,1.4,16.6.3q29.7-4.2,48.5-29.6l5.9-8-15.6-.3-15.7-.3-4.2,3.5c-6.8,5.4-12.2,7.7-20.1,8.3-9.1.7-14.7-.8-19.7-5.4-4.8-4.3-6.9-8.1-6.9-12.3v-3h85.9l1.7-7.8c6.8-29.9-8-54.9-35.8-60.6C266.6-182.3,260.7-182.3,252-180.5Zm19.8,27.1a21.9,21.9,0,0,1,12.6,14.1l.7,2.3H257.6c-15.2,0-27.6-.2-27.6-.5,0-1.3,4.6-6.7,8.3-9.6C247.4-154.4,262.6-157.3,271.8-153.4Z" fill="#e00018"/>
      <path id="path10" d="M498.5-181.4c-18.6,2.7-31.1,9-43.3,21.8a73.979,73.979,0,0,0-16.9,27.9c-2,5.8-2.5,9.2-2.6,17.7,0,5.8.5,12.5,1.2,15,6.2,21.9,24,34.5,48.6,34.4,26.7-.1,50.3-15.2,62.6-39.9,16.1-32.5,2.9-67.8-28.1-75.3C514.6-181.1,502.6-182,498.5-181.4Zm15.3,30.3c16,8.2,16,32.2,0,47.8a41.052,41.052,0,0,1-20.6,10.5c-11.2,2.1-23-4-26.8-13.8-1.2-3.2-1.5-6.3-1.2-11.7,1.1-16.6,13.7-31.3,29.8-34.8C500.3-154.3,509.5-153.3,513.8-151.1Z" fill="#e00018"/>
    </g>
    <path id="path1197" d="M54.1,209.2c-.276-.719,5.512-33.681,12.863-73.248S80.327,63.825,80.327,63.591s6.1-.422,13.546-.418l13.546.007,21.6,43.008C153.489,154.918,154.3,156.4,155.5,154.266c.454-.812,4.052-19.4,7.994-41.3s7.632-42.118,8.2-44.926l1.031-5.106,14.138.4c7.776.221,14.423.687,14.773,1.037.653.653.025,4.283-10.553,61.057-3.41,18.3-8.174,43.966-10.589,57.037s-4.752,24.728-5.2,25.9c-.782,2.071-1.206,2.138-13.426,2.123l-12.619-.016-22.109-43.95c-12.16-24.172-23.138-45.233-24.4-46.8l-2.287-2.852-.563,2.377c-.31,1.307-3.965,20.985-8.124,43.728s-7.846,42.742-8.194,44.441l-.633,3.089H68.771c-11.151,0-14.277-.279-14.672-1.308Z" fill="#e06008" stroke="#3673c6" stroke-width="0.143" fill-rule="evenodd" opacity="0"/>
    <path id="path1236" d="M54.1,209.2c-.276-.719,5.512-33.681,12.863-73.248S80.327,63.825,80.327,63.591s6.1-.422,13.546-.418l13.546.007,21.6,43.008C153.489,154.918,154.3,156.4,155.5,154.266c.454-.812,4.052-19.4,7.994-41.3s7.632-42.118,8.2-44.926l1.031-5.106,14.138.4c7.776.221,14.423.687,14.773,1.037.653.653.025,4.283-10.553,61.057-3.41,18.3-8.174,43.966-10.589,57.037s-4.752,24.728-5.2,25.9c-.782,2.071-1.206,2.138-13.426,2.123l-12.619-.016-22.109-43.95c-12.16-24.172-23.138-45.233-24.4-46.8l-2.287-2.852-.563,2.377c-.31,1.307-3.965,20.985-8.124,43.728s-7.846,42.742-8.194,44.441l-.633,3.089H68.771c-11.151,0-14.277-.279-14.672-1.308Z" fill="#e06008" stroke="#3673c6" stroke-width="0.143" fill-rule="evenodd" opacity="0"/>
    <path id="path1275" d="M54.1,209.2c-.276-.719,5.512-33.681,12.863-73.248S80.327,63.825,80.327,63.591s6.1-.422,13.546-.418l13.546.007,21.6,43.008C153.489,154.918,154.3,156.4,155.5,154.266c.454-.812,4.052-19.4,7.994-41.3s7.632-42.118,8.2-44.926l1.031-5.106,14.138.4c7.776.221,14.423.687,14.773,1.037.653.653.025,4.283-10.553,61.057-3.41,18.3-8.174,43.966-10.589,57.037s-4.752,24.728-5.2,25.9c-.782,2.071-1.206,2.138-13.426,2.123l-12.619-.016-22.109-43.95c-12.16-24.172-23.138-45.233-24.4-46.8l-2.287-2.852-.563,2.377c-.31,1.307-3.965,20.985-8.124,43.728s-7.846,42.742-8.194,44.441l-.633,3.089H68.771c-11.151,0-14.277-.279-14.672-1.308Z" fill="#e06008" stroke="#3673c6" stroke-width="0.143" fill-rule="evenodd" opacity="0"/>
  </g>
</svg>
