<?xml version="1.0" standalone="no"?>
<!DOCTYPE svg PUBLIC "-//W3C//DTD SVG 20010904//EN"
 "http://www.w3.org/TR/2001/REC-SVG-20010904/DTD/svg10.dtd">
<svg version="1.0" xmlns="http://www.w3.org/2000/svg"
 width="1500.000000pt" height="750.000000pt" viewBox="0 0 1500.000000 750.000000"
 preserveAspectRatio="xMidYMid meet">
<metadata>
Created by potrace 1.16, written by Peter Selinger 2001-2019
</metadata>
<g transform="translate(0.000000,750.000000) scale(0.100000,-0.100000)"
fill="#D8115D" stroke="none">
<path d="M7385 6735 c-91 -19 -162 -47 -250 -100 -107 -64 -135 -92 -208 -208
-34 -54 -91 -141 -126 -195 -35 -53 -73 -117 -84 -142 -11 -25 -43 -85 -71
-135 -29 -49 -80 -153 -114 -230 -156 -355 -255 -545 -284 -545 -5 0 -8 -6 -8
-14 0 -8 -13 -27 -28 -43 -16 -15 -34 -39 -41 -51 -7 -13 -38 -40 -69 -60 -42
-26 -52 -37 -39 -40 11 -2 17 -10 14 -20 -2 -10 -9 -16 -15 -14 -7 1 -11 -1
-10 -5 2 -5 0 -8 -5 -8 -4 0 -16 -19 -28 -42 -12 -24 -25 -41 -29 -38 -5 3
-20 -9 -34 -27 -46 -61 -118 -133 -130 -130 -6 2 -8 0 -4 -4 9 -8 -73 -100
-84 -96 -5 1 -8 -3 -8 -8 0 -14 -41 -72 -57 -83 -7 -4 -13 -13 -13 -20 0 -7
-11 -25 -25 -41 -13 -16 -27 -36 -30 -45 -6 -21 -75 -61 -103 -61 -21 0 -49
-26 -39 -37 4 -3 27 2 52 12 26 9 49 14 52 11 4 -3 -1 -6 -10 -6 -9 0 -17 -5
-17 -11 0 -5 4 -7 10 -4 6 3 7 -1 4 -9 -3 -9 -11 -13 -17 -9 -5 3 -7 1 -3 -5
8 -13 -14 -63 -24 -57 -5 3 -10 -2 -14 -10 -3 -8 -12 -15 -21 -15 -8 0 -15 -5
-15 -10 0 -6 -3 -9 -7 -8 -13 4 -63 -34 -63 -47 0 -10 8 -11 30 -5 28 8 29 7
17 -13 -7 -12 -16 -25 -22 -29 -6 -5 -6 -8 2 -8 19 0 5 -52 -21 -76 -12 -12
-32 -27 -45 -33 -17 -10 -20 -15 -11 -26 8 -9 8 -15 0 -20 -5 -3 -10 -19 -10
-36 0 -16 -12 -53 -26 -82 -14 -28 -27 -61 -29 -71 -3 -11 -9 -22 -14 -26 -10
-6 -128 -245 -182 -370 -17 -41 -50 -113 -72 -160 -53 -114 -147 -334 -214
-505 -49 -124 -124 -375 -125 -415 0 -8 -8 -60 -18 -115 -24 -128 -38 -228
-46 -335 -8 -117 -25 -180 -76 -280 -51 -101 -78 -160 -74 -160 8 0 43 37 49
53 3 9 16 17 27 17 11 0 23 7 26 15 8 20 24 9 24 -16 0 -24 -51 -126 -77 -154
-10 -11 -47 -63 -81 -115 -67 -102 -67 -134 0 -61 21 22 42 41 47 41 9 0 46
42 54 61 4 10 6 8 6 -5 1 -14 4 -16 14 -8 14 12 30 4 35 -18 2 -8 7 -16 10
-18 12 -4 -1 -370 -24 -647 -6 -74 -43 -440 -48 -478 -4 -25 -2 -27 27 -26 18
0 28 2 22 5 -12 5 -12 104 0 123 4 7 3 16 -3 20 -6 4 -5 39 4 106 8 55 16 158
18 230 1 72 6 137 9 145 3 8 8 46 11 84 3 38 10 73 17 76 7 5 8 10 1 14 -12 7
-4 46 9 46 5 0 4 8 -2 18 -17 27 -3 89 21 95 25 6 27 -8 3 -17 -12 -5 -14 -9
-6 -14 8 -5 9 -21 3 -52 -5 -25 -11 -78 -15 -119 -3 -41 -7 -77 -9 -80 -2 -3
-7 -91 -10 -195 -4 -103 -10 -194 -12 -201 -3 -7 -1 -16 4 -19 11 -6 20 78 28
247 2 64 9 127 14 140 8 16 9 8 5 -33 -3 -30 -1 -86 4 -125 7 -48 7 -71 0 -76
-13 -8 -18 -99 -8 -148 l8 -36 -2 37 c-1 20 2 40 6 44 4 4 8 -22 9 -57 1 -63
2 -62 9 26 5 50 8 116 8 149 0 42 3 56 11 51 9 -5 10 -35 5 -106 -5 -73 -4
-99 5 -99 6 0 8 -5 4 -12 -16 -26 -29 -198 -14 -198 5 0 7 -9 5 -21 -3 -13 0
-19 8 -16 7 2 11 12 11 21 -1 9 2 16 7 16 5 0 8 17 8 38 -1 36 -2 36 -8 7 l-7
-30 -7 25 c-4 17 -2 29 7 36 8 5 16 26 19 45 2 18 5 -14 5 -72 l2 -106 -24 4
c-13 3 -27 0 -30 -6 -5 -8 65 -11 243 -11 138 0 251 2 251 3 0 2 -9 30 -20 61
-11 32 -22 81 -26 109 -3 29 -13 88 -21 132 -9 44 -17 94 -18 110 -3 28 -10
69 -21 125 -2 14 -6 42 -9 63 -2 21 -6 41 -9 45 -2 4 1 12 8 18 9 8 12 2 13
-25 0 -20 6 -63 12 -96 7 -33 16 -87 21 -120 5 -33 14 -73 19 -90 l11 -30 -5
30 c-16 92 -17 103 -6 109 7 5 11 -5 11 -31 0 -21 4 -54 10 -72 7 -24 6 -39
-1 -47 -6 -8 -9 -19 -6 -26 3 -8 6 -5 6 6 1 11 3 17 6 15 4 -5 36 -160 50
-246 6 -36 10 -43 30 -43 14 0 25 7 28 18 4 16 5 16 6 0 1 -16 13 -18 101 -18
89 0 99 2 93 17 -4 11 -8 12 -11 5 -2 -7 -13 -12 -25 -12 -14 0 -18 3 -10 8
10 6 8 29 -7 102 -10 51 -23 96 -28 99 -5 3 -9 23 -8 44 0 20 -2 37 -6 37 -4
0 -5 7 -2 15 4 8 1 22 -6 30 -7 9 -11 44 -9 97 1 46 -1 90 -4 98 -9 24 -16
180 -8 180 4 0 8 -17 9 -37 2 -21 7 -53 13 -71 6 -18 12 -61 13 -95 1 -35 6
-68 10 -76 4 -7 10 -40 12 -74 3 -34 8 -64 12 -67 4 -3 9 -30 10 -60 2 -30 8
-62 14 -70 6 -10 8 0 4 32 -3 26 -1 50 3 53 5 3 13 -24 16 -60 4 -36 11 -63
15 -60 11 7 21 -22 14 -39 -3 -8 -1 -17 4 -20 6 -3 8 -15 5 -26 -4 -14 -1 -20
8 -18 9 2 13 -4 11 -14 -3 -16 6 -18 67 -18 46 0 71 4 74 13 4 9 6 9 6 0 1
-10 34 -13 132 -13 121 0 131 1 125 18 -6 16 -5 16 8 0 7 -10 23 -18 35 -18
18 0 20 3 11 19 -5 11 -10 23 -10 28 1 4 8 -4 16 -19 l15 -28 121 0 121 0 -6
43 c-4 28 -3 36 3 22 5 -11 9 -30 9 -42 1 -18 7 -23 27 -23 21 0 24 4 20 20
-3 11 -9 30 -12 41 -5 17 -8 19 -16 8 -7 -10 -8 -9 -3 6 11 28 6 82 -11 141
-8 28 -12 58 -9 66 3 8 -3 47 -13 86 -11 40 -15 72 -10 72 12 0 27 -42 20 -55
-3 -5 1 -4 10 3 13 10 17 10 21 0 3 -8 6 -6 6 5 1 10 -6 20 -14 23 -8 4 -15
12 -15 19 0 7 -6 16 -12 18 -9 4 -10 8 -2 14 13 10 11 79 -4 116 -15 35 -15
47 -1 47 6 0 9 -6 6 -12 -2 -7 1 -26 8 -43 10 -25 25 -89 26 -110 0 -2 8 -33
18 -67 10 -35 17 -73 16 -85 -1 -13 1 -23 4 -23 3 0 7 -12 8 -27 1 -19 -1 -22
-8 -12 -7 12 -9 12 -9 -1 0 -13 -1 -13 -10 0 -8 12 -9 10 -7 -7 3 -25 17 -44
17 -24 0 7 5 9 10 6 6 -4 8 -16 4 -27 -4 -14 -3 -18 6 -13 8 5 11 -1 9 -21 -1
-16 1 -41 5 -55 4 -14 8 -32 10 -40 9 -47 20 -69 33 -69 11 0 13 6 9 23 -16
59 -15 68 1 27 16 -39 23 -45 48 -46 17 0 33 5 37 10 5 7 8 7 8 -1 0 -10 170
-13 814 -13 767 0 815 1 819 18 4 16 5 16 6 0 1 -17 22 -18 292 -18 l292 0 -6
73 c-4 39 -9 83 -12 97 -5 23 7 -4 21 -49 2 -8 6 -12 9 -9 7 6 -22 94 -40 122
-16 24 -23 26 -88 26 l-70 0 7 78 c4 42 8 95 11 117 4 39 4 39 -4 5 -5 -27 -9
-10 -15 78 -5 62 -5 116 -2 119 3 4 6 -16 7 -43 1 -27 5 -60 9 -74 6 -15 7 4
3 50 -3 41 -10 83 -15 92 -10 21 -68 53 -68 38 0 -5 5 -10 10 -10 6 0 10 -7
10 -15 0 -9 9 -15 22 -15 18 0 20 -2 9 -12 -10 -11 -18 -6 -42 22 -26 31 -40
68 -21 57 4 -3 7 27 7 66 0 91 48 362 82 470 22 69 25 97 23 182 -6 234 -5
249 13 276 29 43 45 119 52 239 8 144 31 288 52 319 8 13 10 20 4 17 -6 -4
-11 -2 -11 5 0 8 -6 6 -18 -4 -10 -10 -22 -14 -25 -10 -4 3 2 12 13 20 11 8
20 18 20 22 0 11 -119 31 -176 30 -27 -1 -41 -3 -31 -6 9 -2 17 -5 17 -6 1 -1
3 -156 7 -345 4 -287 3 -343 -8 -342 -35 5 -48 0 -42 -17 4 -11 8 -13 11 -5 9
29 22 -4 22 -59 0 -46 -4 -61 -17 -66 -41 -16 -496 23 -958 82 -104 13 -254
29 -333 36 -112 10 -145 16 -151 28 -5 9 -11 61 -14 116 -7 119 -39 281 -73
372 -33 87 -78 154 -169 249 -41 43 -75 82 -75 87 0 19 66 -33 123 -97 98
-108 127 -164 162 -306 30 -121 44 -209 46 -285 1 -33 6 -65 11 -72 6 -7 5
-20 -2 -34 -11 -20 -10 -21 16 -16 28 5 264 -7 335 -18 19 -2 81 -9 139 -15
105 -10 331 -34 423 -45 32 -4 47 -2 43 4 -4 6 -14 7 -23 4 -9 -4 -14 -2 -10
3 3 5 -11 9 -33 7 -28 -1 -38 2 -34 11 3 7 -2 19 -11 26 -11 9 -15 9 -15 1 0
-7 -5 -9 -10 -6 -6 4 -7 11 -4 17 4 6 -1 6 -14 -1 -14 -7 -23 -8 -27 -1 -7 12
2 30 16 30 6 0 7 -6 3 -12 -6 -10 -4 -10 8 0 19 16 71 6 61 -12 -4 -6 1 -5 10
2 9 8 22 10 29 6 18 -11 48 -12 54 -2 3 4 11 5 17 2 7 -4 8 -3 4 2 -5 5 -34 9
-66 10 -31 0 -71 8 -89 16 -17 9 -34 12 -37 8 -3 -5 -17 -5 -31 0 -14 6 -36
10 -50 10 -13 0 -24 5 -24 10 0 6 -5 10 -11 10 -5 0 -7 -5 -3 -12 4 -6 3 -8
-3 -5 -5 3 -32 9 -59 13 -27 3 -53 9 -58 11 -10 7 -50 12 -126 18 -30 2 -55 5
-55 6 0 1 -16 3 -35 4 -32 2 -61 10 -84 23 -5 3 -6 0 -2 -6 8 -13 -6 -17 -17
-6 -12 13 -77 13 -77 1 0 -7 -5 -4 -11 6 -13 23 5 48 29 40 13 -4 12 -2 -3 10
-27 22 -32 21 -38 -5 -5 -18 -8 -19 -21 -8 -21 17 -21 -4 0 -24 14 -14 14 -16
0 -16 -19 0 -38 62 -22 72 8 5 7 8 -1 8 -9 0 -10 7 -5 23 9 25 5 57 -8 57 -4
0 -6 9 -3 20 3 11 -3 37 -14 57 -12 24 -18 57 -18 88 1 28 -3 56 -8 63 -7 8
-7 16 0 23 8 8 11 6 10 -6 -2 -18 13 -24 70 -27 17 -1 30 -6 27 -10 -3 -4 0
-8 6 -8 7 0 10 6 7 14 -5 13 26 30 48 26 6 -1 4 4 -2 11 -7 7 -13 22 -12 34 0
20 0 20 9 0 8 -18 9 -19 9 -1 1 12 6 16 16 12 10 -3 15 1 15 14 0 10 4 21 9
25 6 3 8 -14 6 -42 l-3 -48 16 45 c8 25 17 39 20 32 2 -8 11 -3 24 13 14 18
26 24 39 20 10 -4 19 -2 19 4 0 5 17 15 37 22 29 9 38 9 41 0 3 -9 9 -8 21 3
10 9 44 21 77 27 32 6 63 15 68 20 6 5 25 9 44 9 20 0 31 4 27 10 -4 7 16 10
59 8 36 -1 68 1 71 4 5 5 -123 28 -177 31 -14 1 -24 5 -22 9 2 3 -14 4 -36 1
-24 -4 -40 -2 -40 5 0 5 -7 13 -16 16 -10 4 -13 2 -8 -6 5 -8 -7 -9 -47 -5
-30 4 -79 7 -109 7 -30 0 -50 4 -43 8 13 8 -287 7 -389 -2 -54 -4 -68 -2 -68
8 0 54 688 52 985 -3 78 -15 195 -22 195 -12 0 4 -11 6 -25 3 -14 -2 -25 0
-25 6 0 6 -10 8 -22 4 -15 -3 -19 -2 -14 7 4 6 2 18 -4 26 -12 15 -6 35 11 35
5 0 9 -6 8 -12 -3 -27 2 -38 17 -38 8 0 13 4 10 9 -4 5 0 12 6 15 7 3 2 3 -11
0 -16 -4 -21 -3 -17 5 9 15 39 14 54 -1 9 -9 12 -9 12 -1 0 21 -42 35 -103 33
-17 0 -26 4 -22 10 3 5 0 10 -8 10 -8 0 -17 -7 -21 -15 -4 -11 1 -15 19 -15
18 0 25 -5 25 -20 0 -11 5 -20 10 -20 15 0 12 -17 -5 -24 -18 -7 -45 3 -45 16
0 6 6 8 13 5 8 -3 14 3 14 15 1 13 -4 18 -15 16 -9 -1 -23 1 -29 5 -7 5 -13 4
-13 -2 0 -5 5 -13 10 -16 16 -10 12 -35 -6 -35 -14 0 -14 3 -4 15 8 9 9 15 2
15 -6 0 -14 -4 -17 -10 -8 -13 -42 -13 -51 1 -4 8 1 9 17 4 23 -7 24 -7 4 9
-12 9 -15 15 -7 16 7 0 10 5 7 10 -8 13 -35 -6 -35 -25 0 -16 -67 -18 -77 -2
-3 5 2 16 11 22 15 11 15 15 2 27 -13 13 -11 15 17 15 18 0 24 -2 14 -4 -9 -3
-15 -8 -12 -13 3 -4 14 -6 25 -3 11 3 17 10 13 16 -4 6 9 1 28 -11 34 -21 79
-21 79 0 0 5 -10 6 -21 3 -13 -4 -19 -3 -16 2 4 6 -27 15 -71 21 -53 7 -79 7
-83 0 -4 -7 -43 -7 -115 -2 -60 4 -116 7 -124 5 -13 -2 -13 -1 0 8 8 5 11 13
7 17 -4 4 -13 2 -19 -4 -17 -17 -28 -15 -28 4 0 8 -5 12 -10 9 -6 -4 -8 -11
-5 -16 4 -5 2 -9 -4 -9 -5 0 -13 5 -16 10 -9 15 -27 12 -19 -2 6 -10 4 -10 -7
-1 -16 16 -46 17 -51 2 -2 -7 -12 -7 -31 0 -15 6 -34 8 -42 5 -8 -4 -15 -1
-15 5 0 6 12 11 27 11 46 0 20 8 -45 13 -35 3 -70 11 -78 18 -11 9 -14 8 -14
-5 0 -16 -1 -16 -16 -2 -8 9 -19 14 -23 12 -4 -3 -7 3 -7 12 1 9 -3 17 -9 17
-5 0 -9 -8 -8 -17 2 -10 -2 -18 -7 -18 -6 0 -10 14 -10 30 0 34 -19 41 -27 10
-3 -11 -10 -20 -15 -20 -5 0 -6 -4 -3 -10 3 -5 2 -10 -4 -10 -15 0 -23 18 -10
25 5 4 8 13 5 20 -2 7 6 25 20 40 25 27 31 45 14 45 -5 0 -10 -4 -10 -10 0 -5
-8 -10 -17 -10 -15 0 -14 2 3 19 11 11 23 15 28 10 6 -5 17 -2 28 8 24 22 25
90 1 96 -14 4 -13 5 4 6 12 0 24 -4 26 -9 3 -6 4 -5 3 2 -5 20 13 48 30 48 8
0 13 4 10 9 -3 5 -15 7 -25 4 -10 -3 -22 0 -25 6 -4 6 1 11 11 12 16 0 16 1
-2 9 -11 5 -14 9 -7 9 6 1 12 8 12 17 0 11 -5 14 -17 10 -15 -6 -15 -5 1 13
10 11 15 24 12 30 -4 5 3 27 14 48 11 21 20 53 20 72 0 29 -2 32 -15 21 -13
-10 -15 -9 -15 10 0 16 4 20 15 16 13 -5 14 -2 3 17 -7 12 -11 26 -10 30 1 4
-2 17 -8 27 -9 17 -7 20 9 20 23 0 37 16 19 22 -14 5 -22 48 -8 48 6 0 10 -7
10 -16 0 -11 5 -14 16 -10 9 3 18 6 20 6 10 0 3 38 -10 56 -10 12 -11 23 -5
31 15 17 -7 26 -31 13 -21 -11 -28 -40 -9 -40 8 0 8 -4 -1 -14 -15 -19 -40 -9
-40 15 0 23 -9 24 -38 3 -12 -8 -22 -11 -22 -6 0 13 46 35 58 28 6 -3 13 -2
16 3 10 16 -28 18 -51 3 -13 -8 -23 -11 -23 -7 0 4 -7 2 -15 -5 -17 -14 -20
-56 -6 -65 5 -3 11 3 13 12 3 13 6 15 11 6 5 -9 -10 -31 -45 -64 l-53 -51 35
5 c19 3 30 3 23 1 -7 -3 -9 -12 -6 -20 4 -12 0 -13 -22 -4 -14 5 -28 10 -30
10 -2 0 -17 -25 -34 -56 -16 -30 -23 -50 -15 -44 22 19 16 2 -16 -46 -17 -24
-36 -44 -42 -44 -7 0 -6 6 2 15 7 9 10 19 6 22 -4 4 -12 1 -17 -7 -9 -13 -10
-13 -6 0 2 8 11 15 20 15 28 0 40 20 28 43 -6 11 -11 27 -10 34 0 7 4 4 8 -7
7 -17 12 -11 35 38 14 32 26 61 26 66 0 4 16 20 35 36 27 23 32 32 22 43 -9
12 -12 11 -17 -4 -8 -22 -50 -30 -50 -9 0 8 7 15 15 15 8 0 15 7 15 15 0 20
-30 19 -45 -2 -10 -14 -10 -20 2 -31 9 -10 12 -24 8 -41 -8 -31 -5 -28 -30
-33 -13 -2 -19 2 -17 11 2 8 -2 17 -9 21 -6 5 -8 13 -4 21 6 9 11 6 17 -11 6
-16 12 -20 19 -13 7 7 4 21 -10 43 l-20 33 -6 -26 c-4 -15 -11 -27 -16 -27 -5
0 -7 -12 -4 -27 5 -26 5 -26 -6 -7 -9 17 -7 29 6 58 10 20 21 36 26 36 5 0 7
6 5 13 -1 6 -1 9 1 5 9 -16 34 -8 31 10 -2 9 4 24 13 32 10 9 17 24 16 34 -1
11 5 20 16 22 13 2 16 -2 12 -16 -5 -16 -1 -18 29 -16 38 3 69 23 60 37 -3 5
-11 6 -17 2 -7 -4 -6 0 2 10 7 9 19 17 25 17 6 0 4 -5 -4 -11 -12 -9 -12 -10
3 -5 10 3 22 6 25 6 4 0 1 4 -7 9 -11 7 -8 14 15 35 47 41 21 30 -42 -19 -73
-57 -85 -58 -28 -1 24 25 44 47 44 49 0 3 -9 7 -19 10 -14 3 -18 1 -14 -10 4
-11 2 -14 -8 -11 -8 3 -13 12 -11 22 2 10 -4 16 -14 16 -10 0 -14 3 -11 6 3 4
2 16 -4 27 -8 14 -8 17 0 13 11 -7 19 16 25 76 3 34 1 36 -15 27 -11 -5 -19
-14 -19 -20 0 -6 -10 -8 -22 -5 -13 3 -17 3 -10 0 6 -3 12 -10 12 -16 0 -6 -6
-6 -15 2 -9 8 -15 9 -15 2 0 -6 5 -14 10 -17 12 -8 13 -25 1 -25 -5 0 -12 11
-15 25 -6 23 -26 36 -26 17 0 -16 52 -82 60 -77 6 3 8 0 5 -7 -3 -7 9 -28 26
-46 37 -40 31 -56 -9 -21 -15 13 -21 17 -14 9 6 -8 12 -18 12 -24 0 -5 -6 -1
-14 10 -17 23 -37 25 -53 4 -6 -8 -15 -11 -20 -6 -4 5 -2 11 5 13 6 3 10 8 7
12 -2 5 3 17 11 27 15 19 15 19 9 -1 -3 -11 -3 -16 1 -12 4 4 13 2 21 -4 21
-18 15 0 -13 37 -15 19 -29 32 -32 29 -7 -6 -72 55 -72 68 0 4 14 0 30 -10 17
-9 30 -24 30 -32 0 -8 3 -12 6 -9 3 4 -1 26 -9 50 -13 38 -15 40 -20 18 -4
-24 -4 -24 -6 -2 -2 36 17 63 42 61 43 -4 67 1 67 14 0 6 14 39 30 72 l30 60
-30 -35 c-17 -19 -30 -43 -30 -53 0 -11 -5 -17 -12 -14 -18 6 -11 79 8 93 12
9 12 13 1 22 -10 9 -17 8 -26 -1 -10 -9 -11 -9 -6 5 4 9 13 19 21 22 9 3 12 1
9 -4 -3 -6 -2 -10 4 -10 5 0 18 -3 28 -7 16 -6 16 -5 -2 16 l-20 23 25 20 c14
11 24 25 22 31 -2 6 5 4 14 -4 10 -8 15 -9 11 -3 -4 6 2 19 12 28 16 15 23 16
43 5 13 -6 20 -8 15 -4 -4 5 0 16 8 25 14 16 14 18 -5 23 -13 3 -18 1 -13 -6
4 -7 0 -8 -12 -4 -9 4 -23 3 -30 -3 -9 -7 -16 -6 -24 4 -10 12 -8 17 9 26 11
6 26 8 32 4 7 -4 8 -3 4 5 -5 8 17 23 66 46 40 19 69 34 64 35 -15 0 -229
-101 -244 -116 -7 -8 -19 -14 -26 -14 -15 0 -17 27 -2 27 16 0 153 83 139 83
-7 0 -33 -11 -59 -25 -37 -20 -49 -22 -56 -13 -6 10 -8 10 -8 -1 0 -7 -6 -11
-14 -8 -7 3 -23 -1 -35 -9 -12 -8 -25 -13 -30 -10 -5 3 -26 -8 -46 -24 -44
-35 -62 -32 -21 4 21 17 25 26 16 31 -8 5 -11 4 -7 -1 3 -5 -3 -10 -14 -10
-10 0 -19 2 -19 3 0 2 32 19 70 38 91 46 167 65 257 65 50 0 89 6 125 21 245
96 490 93 704 -11 100 -48 275 -176 369 -270 l71 -70 25 90 c28 100 30 96 -42
128 l-47 20 9 48 c5 27 16 76 24 109 9 33 20 76 25 95 22 88 54 183 68 196 18
19 9 29 -15 16 -13 -8 -22 -7 -35 5 -12 10 -36 15 -80 14 -34 0 -78 3 -98 8
-67 17 -100 20 -100 11 0 -16 36 -30 111 -40 40 -6 80 -17 89 -25 9 -8 25 -12
38 -8 20 5 22 2 22 -29 0 -26 -8 -42 -36 -69 -41 -39 -68 -88 -78 -141 -7 -38
-49 -98 -68 -98 -11 0 -178 100 -178 106 0 2 7 1 15 -2 23 -9 18 -1 -17 32
-17 16 -28 22 -24 14 5 -8 -9 5 -31 29 -21 25 -41 56 -45 70 -4 14 -5 0 -2
-31 3 -32 2 -58 -1 -58 -4 0 -20 9 -36 21 -28 19 -29 24 -31 102 l-2 82 -3
-78 -4 -78 -28 17 c-31 19 -39 46 -42 144 -2 55 -2 55 -12 -23 -6 -48 -14 -76
-21 -74 -6 2 -13 14 -14 27 -3 17 -6 20 -12 10 -7 -11 -12 -11 -23 -2 -9 8
-13 29 -11 69 l3 58 -10 -54 c-8 -38 -14 -50 -22 -42 -16 16 -18 64 -3 87 8
11 17 47 21 80 23 207 92 452 173 609 14 28 26 53 27 56 0 3 44 72 98 153 53
81 97 151 97 156 0 4 12 15 26 25 15 10 23 22 20 31 -3 8 -2 13 3 10 12 -8 44
31 36 44 -3 6 -2 9 3 8 15 -5 84 71 76 84 -4 6 -3 8 3 5 11 -7 63 53 63 72 0
6 4 10 9 8 5 -1 33 23 61 53 28 30 72 77 98 104 52 54 25 36 -52 -34 -27 -25
-52 -44 -57 -43 -5 2 -6 -5 -3 -15 5 -13 4 -14 -4 -3 -6 8 -12 9 -16 3 -3 -6
-1 -12 5 -14 6 -2 0 -12 -12 -23 -12 -11 -19 -15 -16 -8 4 6 3 13 -2 15 -25 9
168 184 252 227 51 27 20 35 -38 11 -11 -5 -37 -11 -58 -15 -21 -3 -35 -10
-33 -14 6 -9 -58 -41 -82 -41 -9 0 1 9 23 19 22 11 37 20 33 20 -10 1 -230
-77 -251 -90 -11 -6 -21 -8 -24 -5 -3 3 10 12 28 20 19 8 52 22 74 32 45 20
124 74 106 74 -6 0 -35 -11 -64 -25 l-52 -25 30 25 c35 29 22 34 -15 5 -14
-11 -30 -20 -36 -20 -6 0 -21 -11 -34 -25 -13 -14 -28 -25 -34 -25 -6 0 3 12
19 26 22 19 25 24 10 20 -18 -6 -18 -4 3 13 12 11 22 22 22 25 0 10 -54 -14
-90 -41 l-35 -25 30 26 c75 66 85 73 90 68 3 -3 5 0 5 6 0 7 -7 12 -15 12 -8
0 -15 -6 -15 -13 0 -9 -12 -14 -30 -15 -34 -1 -117 -52 -85 -52 16 0 17 -2 5
-9 -8 -6 -18 -7 -22 -5 -5 3 -26 -10 -47 -29 -22 -20 -50 -40 -63 -47 -22 -11
-22 -11 -3 5 17 14 18 17 5 26 -12 8 -11 9 6 5 14 -4 28 2 43 18 22 23 22 25
4 35 -17 10 -15 12 17 15 8 0 16 7 16 14 1 6 2 17 3 23 0 6 7 9 15 6 8 -3 17
1 20 9 3 8 -1 14 -8 14 -22 0 -46 -11 -42 -19 3 -4 -9 -14 -26 -24 -17 -10
-26 -12 -20 -5 5 7 10 17 11 22 0 5 10 14 23 20 13 7 23 19 22 27 -1 9 11 14
37 15 20 1 45 7 55 13 17 10 16 11 -6 5 -14 -4 -39 -8 -56 -8 -18 -1 -39 -7
-47 -15 -9 -7 -21 -10 -27 -6 -5 3 -10 -1 -10 -10 0 -9 -9 -25 -20 -37 -11
-12 -20 -18 -20 -13 0 4 -8 1 -17 -7 -10 -9 -29 -19 -43 -23 -15 -4 -2 8 30
30 69 48 66 45 46 45 -9 0 -28 -12 -43 -26 -14 -14 -27 -23 -29 -21 -2 2 5 12
16 22 25 22 27 44 3 23 -10 -8 -30 -14 -45 -13 -16 0 -28 -2 -28 -6 0 -4 -8
-10 -17 -13 -16 -6 -16 -6 0 12 9 10 15 21 12 24 -3 3 15 15 40 27 47 22 85
54 85 71 0 5 -7 7 -15 4 -8 -4 -13 -9 -11 -13 3 -3 -14 -17 -37 -30 l-42 -23
29 26 c16 14 25 26 19 26 -5 0 -13 -3 -17 -7 -3 -4 -17 -8 -29 -10 -12 -2 -31
-13 -42 -25 l-20 -20 28 17 c24 16 27 16 21 1 -6 -17 -47 -32 -61 -23 -5 3
-15 1 -23 -5 -12 -8 -12 -9 3 -4 24 8 21 -1 -4 -15 -13 -6 -19 -7 -15 -1 11
18 -18 20 -39 3 -14 -11 -12 -7 4 12 25 27 18 38 -9 15 -8 -7 -6 -3 4 10 24
27 36 28 31 2 -4 -20 9 -28 19 -11 4 5 0 12 -6 14 -10 4 -9 6 1 6 19 1 113 62
107 69 -3 2 -17 -3 -31 -12 -14 -9 -30 -14 -35 -11 -9 5 -81 -34 -158 -87 -24
-16 -45 -28 -48 -26 -8 8 110 85 202 133 85 44 87 46 44 40 -25 -4 -74 -22
-109 -42 -47 -25 -67 -31 -75 -23 -8 8 -6 9 9 4 11 -4 17 -4 13 1 -5 4 17 19
46 33 30 13 58 32 61 41 5 13 4 14 -6 4 -7 -7 -36 -13 -64 -13 -29 0 -74 -7
-101 -15 -27 -8 -56 -15 -64 -14 -14 0 19 12 100 37 32 10 31 10 -20 6 -108
-10 -177 -34 -255 -87 -16 -12 -25 -15 -18 -7 6 8 12 19 12 24 0 6 8 11 17 12
8 1 21 9 27 17 27 34 117 52 252 50 72 -1 155 -4 185 -6 38 -3 70 2 104 15 27
10 51 16 54 14 4 -5 -9 -11 -67 -32 -8 -2 -12 -7 -9 -9 3 -3 22 2 43 11 21 8
49 14 62 11 20 -4 23 -1 17 17 -6 20 -5 20 11 -2 9 -12 21 -19 27 -16 7 4 8 2
4 -4 -4 -7 -22 -13 -39 -13 -20 -1 -24 -3 -11 -6 11 -2 39 0 62 5 23 6 42 6
42 1 0 -4 6 -6 14 -3 8 3 17 1 21 -5 4 -7 -6 -11 -27 -12 -27 0 -29 -2 -13 -8
11 -5 24 -6 28 -4 4 3 13 0 20 -6 9 -7 17 -7 27 1 12 8 12 9 -2 4 -12 -3 -18
0 -18 9 0 19 14 19 30 0 7 -9 22 -14 34 -13 14 2 20 -2 18 -12 -2 -8 0 -12 4
-8 4 4 12 4 18 -1 6 -4 25 -11 41 -15 26 -5 28 -5 13 7 -25 19 -8 41 18 22 10
-8 27 -15 36 -15 9 0 18 -5 20 -11 2 -7 18 -12 35 -13 20 -1 28 -5 23 -11 -5
-6 2 -11 17 -12 16 0 21 2 14 7 -9 5 -4 10 15 14 19 5 32 2 43 -9 15 -15 14
-15 -10 -6 -23 8 -28 7 -32 -9 -3 -13 2 -19 19 -23 13 -2 24 0 24 6 0 5 12 7
28 3 15 -4 34 -7 42 -8 8 0 23 -7 32 -15 9 -8 22 -12 28 -8 6 3 9 1 8 -7 -2
-7 4 -13 12 -13 8 0 15 -5 15 -10 0 -12 -28 -14 -36 -2 -8 11 -50 -15 -45 -28
2 -5 -4 -19 -13 -30 -15 -19 -15 -19 4 -4 11 8 33 23 49 33 26 16 28 17 23 2
-6 -15 -4 -15 23 -1 41 21 38 11 -5 -15 -19 -12 -34 -25 -32 -30 1 -5 -7 -16
-18 -24 -11 -8 -17 -16 -13 -16 3 0 30 21 60 46 60 52 95 74 82 52 -4 -7 -19
-28 -32 -46 -24 -31 -24 -32 -4 -29 30 4 37 14 41 60 1 4 6 7 12 7 8 0 7 -6
-2 -16 -12 -15 -11 -16 9 -10 21 7 22 5 18 -26 -3 -18 -16 -76 -30 -128 -24
-94 -29 -150 -12 -150 15 0 -3 -63 -29 -100 -32 -46 -32 -63 0 -26 13 15 31
53 40 83 9 30 19 53 22 50 3 -3 0 -20 -6 -38 -13 -37 -8 -47 14 -29 17 14 19
7 5 -20 -6 -11 -12 -63 -14 -117 -3 -54 -7 -123 -10 -153 -4 -38 -3 -49 3 -35
5 11 10 37 10 58 1 20 5 37 10 37 6 0 12 -17 14 -37 2 -21 3 3 2 54 0 52 3 89
8 86 5 -3 7 24 5 61 -1 36 0 66 5 66 4 0 7 -6 7 -14 0 -7 7 -19 15 -26 17 -14
17 -19 0 99 -2 19 -10 39 -16 45 -9 8 -10 7 -6 -6 3 -9 0 -19 -8 -21 -22 -9
-10 25 15 42 15 10 21 11 16 4 -4 -7 -3 -13 2 -13 6 0 17 -17 25 -37 9 -21 16
-30 16 -20 1 9 6 17 12 17 6 0 9 -10 6 -22 -3 -13 -1 -32 3 -43 6 -14 9 -4 9
35 1 30 4 65 7 78 5 16 2 22 -9 22 -10 0 -18 14 -23 43 -4 23 -7 46 -6 50 1 4
-8 3 -20 -4 -22 -12 -22 -11 -5 8 19 21 23 38 7 28 -6 -3 -7 1 -4 10 12 31 35
5 68 -80 l16 -40 -5 60 c-3 33 -8 68 -11 79 -5 14 -3 16 7 10 11 -6 12 -5 3 7
-7 8 -15 33 -19 57 -4 26 -14 46 -25 52 -22 12 -40 13 -22 2 9 -7 7 -13 -9
-28 -22 -19 -22 -19 -12 1 6 11 9 30 7 43 -4 20 4 26 23 20 5 -2 7 -7 5 -12
-2 -5 5 -3 14 5 16 12 17 12 11 -4 -4 -11 -3 -16 3 -12 5 3 12 -7 16 -22 4
-15 15 -44 24 -63 10 -19 23 -51 28 -70 l10 -35 1 31 c1 17 -4 46 -11 65 -16
48 -68 130 -78 124 -5 -3 -15 4 -23 16 -10 14 -23 19 -39 17 l-23 -5 25 -11
c26 -11 24 -12 -27 -15 -17 -1 -29 1 -26 6 6 11 -1 9 -57 -13 l-51 -20 -67 25
c-37 14 -80 33 -97 42 -34 18 -175 71 -220 83 -16 4 -50 17 -75 28 -88 40
-306 89 -524 117 -129 18 -180 18 -261 0z m225 -89 c-19 -8 -39 -11 -45 -8
-11 7 29 20 60 20 12 0 6 -5 -15 -12z m134 -14 c3 -5 -11 -9 -32 -10 -29 0
-33 1 -17 8 27 11 43 12 49 2z m-544 -135 c0 -1 -24 -25 -52 -52 l-53 -50 50
53 c46 48 55 57 55 49z m1627 -126 c-44 -48 -74 -103 -47 -86 6 3 10 1 10 -4
0 -6 -8 -11 -17 -11 -17 0 -53 -63 -68 -118 -4 -13 -9 -21 -12 -18 -3 3 3 31
13 63 20 64 120 217 136 207 5 -4 0 -17 -15 -33z m-1102 -44 c-11 -6 -24 -12
-28 -12 -4 0 -12 -7 -17 -15 -5 -8 -10 -10 -10 -5 0 18 18 38 28 31 6 -3 13
-2 17 4 3 5 12 10 18 10 7 0 3 -6 -8 -13z m497 -147 c-29 -28 -56 -50 -60 -50
-4 1 17 23 47 50 30 28 57 50 60 50 3 0 -18 -23 -47 -50z m504 -44 c-2 -13
-12 -37 -21 -52 -9 -16 -13 -20 -10 -9 4 11 11 35 17 53 10 37 20 43 14 8z
m-658 -123 c-105 -122 -158 -188 -158 -197 0 -4 -17 -30 -38 -59 -21 -29 -60
-88 -87 -132 -27 -44 -52 -81 -56 -83 -5 -2 -6 -9 -3 -15 2 -7 -5 -23 -16 -35
-11 -12 -19 -25 -19 -29 3 -14 -18 -58 -27 -58 -5 0 -9 -9 -10 -20 -3 -49 -5
-55 -19 -55 -8 0 -15 -5 -15 -11 0 -5 5 -7 10 -4 6 3 10 2 10 -4 0 -5 -7 -11
-16 -13 -9 -2 -26 -28 -39 -63 -12 -33 -40 -107 -62 -165 -22 -58 -50 -144
-63 -193 -13 -48 -25 -85 -27 -83 -20 20 169 554 221 626 6 8 20 32 30 53 11
20 23 37 27 37 4 0 7 8 6 18 0 10 8 31 20 47 11 17 38 57 59 90 94 147 210
299 318 413 70 73 50 46 -46 -65z m-882 -355 c-9 -13 -32 -52 -51 -88 -18 -36
-34 -61 -35 -57 0 13 60 130 77 150 23 24 28 21 9 -5z m138 4 c6 -10 -5 -26
-21 -29 -7 -2 -13 3 -13 10 0 24 23 36 34 19z m-109 -122 c-10 -11 -20 -18
-23 -16 -8 9 -28 -18 -36 -47 -3 -15 -11 -25 -16 -22 -6 3 -10 0 -11 -7 0 -9
-2 -10 -5 -1 -3 7 6 29 20 49 14 21 23 42 19 47 -3 5 3 6 14 3 13 -4 25 0 33
9 7 9 15 13 18 10 3 -3 -3 -14 -13 -25z m-141 -137 c4 -16 22 -48 42 -72 19
-25 33 -50 30 -57 -3 -7 0 -15 7 -18 8 -3 8 -5 1 -5 -15 -1 -84 78 -84 96 0 8
-4 12 -8 9 -4 -2 -9 13 -9 35 -2 45 12 53 21 12z m66 -17 c0 -8 3 -23 6 -33 5
-12 4 -15 -3 -8 -16 15 -26 55 -14 55 6 0 11 -6 11 -14z m459 -180 c-40 -102
-78 -252 -71 -278 3 -14 1 -19 -6 -14 -11 7 -34 -58 -48 -137 -3 -21 -10 -35
-15 -30 -5 5 -2 34 5 65 7 32 11 60 8 62 -3 3 1 12 8 21 7 8 9 15 5 15 -4 0
-2 7 5 15 7 8 10 15 7 15 -3 0 5 30 19 68 14 37 31 85 38 107 8 22 22 63 33
90 11 28 23 59 27 69 3 10 8 17 11 14 2 -2 -9 -39 -26 -82z m-1135 -25 c3 -5
-1 -14 -8 -20 -16 -13 -32 2 -21 19 8 12 22 13 29 1z m1130 -176 c-8 -39 -16
-80 -16 -92 0 -13 -4 -21 -8 -18 -10 6 -29 -62 -36 -134 -6 -50 -9 -59 -20
-50 -8 6 -11 15 -8 20 3 5 -1 6 -9 3 -12 -4 -13 5 -5 53 14 89 28 131 22 63
-4 -40 -3 -51 5 -40 6 8 11 24 11 35 0 11 9 35 20 53 11 18 18 37 15 41 -2 5
2 33 11 62 21 75 24 82 29 78 2 -3 -3 -36 -11 -74z m-1321 -9 c-4 -8 -30 -31
-58 -51 -46 -33 -47 -33 -11 -3 22 18 46 41 55 51 19 21 25 22 14 3z m-13
-129 c0 -1 -22 -25 -50 -52 -27 -27 -50 -46 -50 -43 0 6 92 98 98 98 1 0 2 -1
2 -3z m-152 -139 c-7 -13 -11 -27 -10 -31 1 -5 -2 -6 -8 -2 -5 3 -10 2 -10 -4
0 -5 -18 -29 -40 -53 -22 -23 -40 -46 -40 -50 0 -5 -5 -8 -12 -8 -6 0 -4 7 5
18 10 10 14 22 10 27 -5 4 -2 5 5 1 7 -4 12 -1 12 9 0 9 5 13 10 10 6 -3 10 0
10 8 0 7 14 26 30 42 17 16 30 35 30 42 0 7 5 13 10 13 7 0 6 -8 -2 -22z m-85
-45 c-4 -11 -8 -12 -13 -2 -6 8 -13 2 -24 -18 -8 -17 -12 -33 -9 -37 4 -4 -3
-9 -15 -13 -22 -5 -31 -23 -11 -23 6 0 -3 -14 -20 -31 -17 -17 -31 -35 -31
-41 0 -7 -5 -6 -15 2 -8 6 -20 9 -27 5 -7 -4 -4 1 6 9 11 9 22 12 25 7 3 -5
14 2 24 15 10 13 14 24 9 24 -6 0 -13 -7 -16 -16 -3 -8 -11 -12 -16 -9 -6 4 1
18 17 34 16 16 43 49 62 74 32 42 67 55 54 20z m-234 -94 c-8 -5 -11 -9 -7 -9
4 0 0 -9 -9 -20 -10 -11 -22 -20 -28 -20 -6 0 -6 3 1 8 6 4 19 23 29 42 11 21
20 30 23 21 2 -7 -2 -17 -9 -22z m96 1 c-8 -9 -15 -22 -15 -28 0 -7 -7 -12
-15 -12 -13 0 -12 4 4 22 11 11 18 24 16 28 -2 4 2 7 10 7 13 0 13 -3 0 -17z
m455 -54 c-55 -52 -138 -124 -127 -111 24 31 162 163 166 159 3 -3 -15 -24
-39 -48z m-388 -4 c-12 -15 -36 -51 -53 -80 -17 -29 -33 -51 -36 -49 -9 10 96
170 106 161 3 -3 -5 -17 -17 -32z m-116 -22 l-6 -30 22 20 c28 26 37 16 11
-13 -10 -12 -34 -46 -52 -74 -37 -59 -51 -71 -24 -20 9 17 17 35 18 39 0 3 3
10 8 14 4 4 7 12 7 18 0 16 -19 -6 -38 -45 -10 -19 -23 -33 -30 -31 -7 1 -11
-1 -11 -5 1 -5 0 -10 -1 -13 -9 -24 -7 -41 6 -36 11 4 12 2 2 -14 -7 -10 -16
-16 -20 -14 -4 3 -8 -1 -8 -9 0 -8 -6 -20 -14 -26 -8 -6 -16 -21 -19 -32 -5
-17 -3 -18 11 -8 9 7 2 -2 -15 -20 -18 -18 -33 -41 -33 -52 0 -10 -4 -19 -10
-19 -5 0 -10 -8 -10 -19 0 -22 -25 -45 -39 -37 -5 4 -14 -2 -20 -11 -6 -10
-11 -13 -11 -6 0 6 4 14 10 18 11 7 65 104 65 119 0 13 33 76 40 76 2 0 2 -8
-1 -17 -5 -15 -3 -15 10 1 19 24 21 40 4 30 -9 -5 -9 -2 1 9 7 9 10 17 7 17
-4 0 -1 10 6 23 7 12 12 24 13 27 0 3 25 39 55 80 30 41 54 78 52 83 -1 4 3 7
9 7 7 0 9 -11 5 -30z m174 -85 c-7 -8 -9 -15 -4 -15 5 0 1 -5 -8 -11 -10 -5
-18 -17 -18 -26 0 -9 -3 -13 -6 -10 -24 24 -246 -367 -309 -546 -30 -84 -45
-101 -19 -21 47 144 146 342 242 479 56 81 123 165 130 165 3 0 -1 -7 -8 -15z
m-100 -202 c-40 -72 -60 -94 -30 -33 27 53 50 90 57 90 3 0 -10 -26 -27 -57z
m918 -40 c9 1 18 -2 19 -8 0 -5 -3 -9 -8 -7 -5 1 -9 -3 -9 -9 0 -5 -4 -7 -10
-4 -5 3 -15 -5 -22 -19 -6 -14 -14 -26 -17 -26 -19 0 -117 -107 -181 -199 -23
-31 -123 -213 -154 -278 -6 -13 -14 -23 -18 -23 -5 0 -8 -5 -8 -11 0 -6 -10
-24 -21 -41 -23 -32 -27 -102 -13 -225 4 -33 2 -53 -4 -53 -5 0 -13 50 -17
115 -6 102 -5 119 12 153 163 321 227 423 322 516 27 27 47 54 44 59 -3 6 -1
7 4 4 18 -11 63 32 59 56 -1 12 -1 16 1 10 2 -7 12 -12 21 -10z m128 1 c1 -15
-7 -20 -34 -22 -20 -1 -38 -6 -42 -10 -3 -4 -22 -18 -42 -32 -20 -13 -34 -28
-32 -32 3 -4 0 -8 -6 -8 -6 0 -8 -5 -4 -12 4 -6 3 -8 -4 -4 -6 3 -13 -2 -17
-13 -3 -11 -13 -25 -21 -32 -13 -11 -14 -9 -2 17 21 46 168 176 193 170 6 -2
10 -11 11 -22z m-1476 -43 c0 -17 -31 -83 -37 -78 -3 3 2 20 11 38 9 17 13 35
10 40 -3 5 0 9 5 9 6 0 11 -4 11 -9z m439 -75 c-18 -36 -34 -64 -36 -62 -2 2
10 34 28 70 18 36 34 64 36 62 2 -2 -10 -34 -28 -70z m-353 -74 c-8 -16 -13
-40 -10 -53 l5 -24 -13 23 c-8 12 -17 19 -22 15 -4 -4 -4 0 0 10 3 9 10 17 15
17 5 0 15 11 21 25 6 14 13 23 15 21 3 -2 -2 -17 -11 -34z m1233 -46 c35 -36
68 -52 39 -18 -14 15 -14 19 5 37 l20 20 -12 -22 c-7 -14 -8 -23 -2 -23 6 0
15 -8 20 -18 15 -28 -42 -29 -68 0 -12 12 -24 18 -28 13 -5 -4 -2 -10 5 -12 6
-3 12 -14 12 -24 0 -11 -5 -17 -10 -14 -6 4 -8 11 -5 16 4 5 1 9 -5 9 -7 0
-10 -9 -7 -22 3 -13 1 -32 -4 -43 -7 -16 -8 -14 -4 9 5 22 3 27 -9 23 -16 -6
-40 16 -29 27 4 4 -1 4 -12 1 -19 -6 -19 -6 0 6 11 7 25 20 32 28 7 9 13 11
13 6 0 -6 -5 -16 -12 -23 -9 -9 -9 -12 0 -12 15 0 37 41 26 49 -5 3 -20 19
-34 35 l-25 30 30 -21 c17 -12 46 -37 64 -57z m-151 -68 c9 3 7 -4 -4 -17 -22
-25 -25 -26 -17 -4 4 9 2 14 -3 10 -5 -3 -10 3 -10 14 0 17 2 18 11 6 5 -7 16
-12 23 -9z m46 -34 c9 -3 16 -16 16 -28 -1 -35 -37 -103 -65 -122 -25 -16 -27
-16 -43 1 -16 18 -16 18 0 6 35 -26 106 78 81 118 -16 25 -35 19 -60 -18 -13
-19 -23 -29 -23 -23 0 16 50 72 65 72 7 0 20 -3 29 -6z m76 -71 c11 -10 20
-21 20 -26 0 -10 26 -37 35 -37 4 0 4 8 0 18 -5 13 -4 14 6 5 10 -10 9 -16 -4
-31 -9 -10 -17 -24 -17 -30 0 -6 -5 -14 -12 -18 -7 -5 -9 -2 -6 7 3 8 9 23 13
34 7 20 6 20 -9 1 -9 -11 -19 -16 -23 -12 -4 4 -1 11 6 15 10 7 7 17 -13 50
-28 44 -27 51 4 24z m-13 -43 c2 -14 -1 -19 -9 -14 -8 5 -9 2 -4 -12 18 -45
18 -48 -2 -26 -12 14 -23 19 -27 12 -3 -5 -1 -10 4 -10 6 0 11 -8 11 -17 0
-15 -2 -16 -10 -3 -7 11 -10 11 -10 2 0 -7 10 -17 23 -22 l22 -10 -24 3 c-37
3 -45 39 -17 79 12 19 20 40 18 48 -4 12 -2 13 9 3 7 -7 14 -22 16 -33z m-197
-25 c-14 -17 -4 -38 13 -29 7 4 8 3 4 -2 -5 -5 -14 -9 -20 -9 -6 0 -17 -11
-24 -25 -8 -15 -13 -19 -13 -9 0 9 3 19 8 23 4 4 7 11 7 14 2 21 18 52 27 52
7 0 6 -5 -2 -15z m124 -90 c-7 -17 -24 -20 -24 -5 0 6 5 10 10 10 6 0 10 5 10
12 0 8 -6 7 -16 -4 -11 -10 -14 -23 -9 -38 5 -17 9 -19 16 -9 4 7 10 11 12 9
2 -3 -3 -17 -13 -32 -14 -23 -19 -26 -33 -15 -14 10 -15 17 -4 47 7 19 19 45
27 57 14 22 15 22 22 3 4 -11 5 -27 2 -35z m-1295 9 c-21 -39 -24 -48 -9 -39
6 3 10 -1 10 -11 0 -13 -3 -14 -13 -5 -8 6 -16 8 -20 5 -5 -5 -2 21 3 36 1 3
2 9 1 13 -1 5 4 5 10 1 7 -4 9 0 5 13 -4 14 -1 19 13 20 20 2 20 1 0 -33z
m1465 -14 c-19 -20 -19 -20 -32 1 -12 19 -11 20 7 14 10 -3 22 -1 26 5 4 6 10
9 13 5 3 -3 -3 -14 -14 -25z m-1078 -54 c-6 -36 -12 -64 -14 -61 -7 6 10 135
17 131 4 -3 2 -34 -3 -70z m830 18 c-7 -19 21 -57 35 -48 15 9 10 -14 -7 -30
-20 -20 -28 -20 -20 0 3 8 0 25 -6 37 -16 27 -18 57 -6 57 6 0 7 -7 4 -16z
m142 -37 c16 -33 4 -78 -30 -114 -26 -28 -40 -29 -63 -3 -16 18 -17 25 -6 63
15 48 48 89 70 85 9 -2 22 -16 29 -31z m-178 -69 c0 -42 -24 -94 -49 -103 -8
-3 -22 2 -30 12 -15 15 -15 16 1 4 14 -10 20 -9 37 8 22 22 36 79 28 111 -3
11 -1 18 4 14 5 -3 9 -23 9 -46z m-1260 -38 c-6 -11 -8 -26 -4 -32 4 -6 3 -8
-3 -5 -7 4 -14 -8 -17 -29 -6 -31 -9 -34 -24 -22 -11 9 -14 10 -8 1 4 -7 3
-13 -1 -13 -5 0 -9 -9 -10 -21 -1 -14 3 -19 12 -15 9 3 12 0 8 -9 -3 -8 -9
-12 -14 -9 -5 3 -9 -1 -9 -9 0 -8 -6 -20 -14 -26 -7 -6 -21 -40 -31 -76 -9
-36 -21 -65 -27 -65 -5 0 -6 -5 -2 -12 5 -7 3 -8 -6 -3 -9 5 -10 2 -5 -14 3
-11 2 -21 -3 -21 -5 0 -9 -12 -10 -28 0 -15 -10 -52 -23 -82 -12 -30 -23 -62
-24 -70 -2 -20 -47 -122 -51 -117 -2 2 9 38 25 80 16 42 27 77 24 77 -2 0 3
10 11 22 9 12 16 37 16 55 0 18 4 33 8 33 4 0 8 10 8 23 0 34 15 77 25 71 5
-3 6 2 3 10 -3 9 -1 16 6 16 6 0 8 5 5 10 -4 6 1 24 9 42 9 17 16 37 16 43 0
7 7 18 15 25 8 7 15 18 14 24 -4 30 2 56 16 70 8 8 15 20 15 26 0 7 6 24 14
38 8 15 17 36 21 47 6 18 7 19 16 3 7 -12 6 -25 -1 -38z m891 -61 c-11 -24
-20 -41 -20 -37 -1 12 31 89 35 85 3 -2 -4 -24 -15 -48z m387 -20 c-10 -7 -7
-11 10 -15 18 -5 20 -9 11 -20 -20 -25 0 -28 21 -4 13 15 20 18 20 9 0 -8 -9
-23 -21 -32 -16 -15 -23 -16 -35 -6 -8 7 -12 19 -9 27 3 8 1 20 -5 27 -8 9 -8
15 0 20 5 3 11 16 11 28 2 21 2 20 6 -2 3 -13 -1 -28 -9 -32z m262 -12 c0 -2
-9 -14 -20 -27 -20 -23 -20 -23 -20 -2 0 11 8 23 18 25 9 3 18 5 20 6 1 0 2
-1 2 -2z m-104 -47 c15 -6 24 -17 24 -31 0 -26 -21 -20 -36 9 -18 36 -24 38
-20 6 2 -16 1 -21 -1 -11 -2 9 -8 15 -13 12 -16 -10 11 -54 29 -48 13 5 14 3
4 -8 -18 -18 -16 -29 5 -30 10 0 12 -3 4 -6 -6 -2 -10 -9 -6 -14 11 -18 -25
-9 -49 13 -26 24 -27 21 9 108 12 29 20 38 22 26 2 -9 15 -21 28 -26z m256
-11 c-12 -19 -22 -27 -26 -20 -4 6 -2 11 3 11 6 0 11 7 11 15 0 8 5 15 10 15
6 0 10 8 11 18 0 10 3 12 6 4 2 -7 -4 -26 -15 -43z m-338 -9 c-17 -48 -30 -69
-21 -32 6 25 4 26 -24 11 -11 -5 -17 -14 -14 -19 3 -5 1 -11 -4 -14 -14 -9
-21 21 -8 32 7 5 21 12 33 16 11 3 27 18 34 31 20 37 21 25 4 -25z m223 12
c-23 -27 -32 -46 -18 -37 10 6 11 3 2 -14 -14 -25 -23 -28 -14 -4 4 11 3 14
-5 9 -18 -11 -15 2 9 40 11 19 25 31 31 28 5 -4 4 -12 -5 -22z m-303 -7 c3 -8
1 -16 -4 -16 -6 -1 -14 -2 -19 -3 -6 0 -16 -7 -22 -13 -28 -28 -31 -11 -4 17
33 34 40 36 49 15z m323 -12 c-4 -3 -3 -11 1 -17 5 -7 -4 -23 -24 -43 -25 -24
-34 -28 -38 -16 -3 7 -2 12 3 9 4 -3 18 7 31 21 15 17 19 28 12 31 -18 6 -14
22 5 22 9 0 13 -3 10 -7z m-494 -154 c102 -2 191 -35 238 -86 29 -31 94 -143
84 -143 -4 0 1 -7 9 -16 9 -8 16 -21 16 -28 0 -7 9 -31 20 -54 11 -22 20 -47
20 -55 0 -8 7 -34 16 -58 19 -54 35 -144 23 -132 -9 9 -16 31 -55 177 -9 33
-20 67 -24 75 -4 9 -24 51 -44 94 -21 42 -40 77 -44 77 -4 0 -6 -76 -4 -169 2
-94 -1 -185 -7 -203 -6 -23 -8 35 -7 184 l3 217 -31 29 c-39 35 -122 64 -184
64 -66 0 -72 13 -61 143 2 23 4 8 6 -37 4 -73 5 -78 26 -79z m615 119 c18 -18
15 -30 -6 -23 -14 4 -29 -6 -53 -35 -19 -22 -38 -40 -43 -40 -5 0 -19 -11 -32
-26 -13 -14 -24 -19 -24 -13 0 15 39 59 52 59 5 0 16 7 24 15 9 8 13 15 10 15
-6 0 47 57 55 59 3 0 10 -4 17 -11z m-382 -73 c27 -19 45 -35 41 -35 -5 0 -22
9 -37 20 -16 11 -44 27 -62 35 -25 11 -28 14 -12 15 11 0 43 -16 70 -35z m216
-19 c-3 -5 -11 -1 -18 9 -8 10 -15 17 -17 14 -1 -2 -14 -21 -27 -41 -13 -20
-28 -34 -32 -31 -7 4 4 21 52 80 8 10 14 9 29 -5 10 -9 16 -21 13 -26z m68
-34 c0 -5 -9 -17 -20 -27 -11 -10 -20 -27 -20 -37 0 -11 -4 -16 -10 -13 -5 3
-10 1 -10 -4 0 -6 -4 -11 -10 -11 -17 0 -11 26 10 45 11 10 20 24 20 31 0 7 6
15 13 17 19 8 27 8 27 -1z m17 -67 c-3 -19 -1 -37 4 -40 14 -9 11 -25 -5 -25
-7 0 -16 -9 -19 -20 -3 -11 -11 -20 -18 -20 -10 0 -10 3 -1 12 7 7 12 28 12
48 0 46 10 80 22 80 6 0 8 -14 5 -35z m-1932 -352 c-30 -42 -29 -38 0 20 11
21 21 34 23 28 2 -5 -9 -27 -23 -48z m2119 -31 c2 -4 -43 -8 -100 -8 -58 -1
-101 2 -98 7 6 11 191 12 198 1z m-234 -61 c0 -20 -17 -37 -27 -28 -7 8 7 47
18 47 5 0 9 -9 9 -19z m766 -18 c18 -24 17 -33 -2 -33 -8 0 -12 5 -9 10 4 6 1
17 -5 25 -7 8 -9 15 -5 15 4 0 14 -8 21 -17z m-961 -51 c-5 -14 -7 -14 -15 -2
-5 9 -4 20 3 28 14 17 22 0 12 -26z m453 -281 c-1 -20 -8 -32 -24 -40 -15 -6
-25 -7 -29 -1 -4 6 3 10 14 10 13 0 21 9 26 30 8 38 14 38 13 1z m-160 -35
c16 -18 18 -24 7 -22 -17 3 -44 26 -29 26 5 0 2 5 -6 10 -8 5 -10 10 -5 10 6
0 20 -11 33 -24z m86 -432 c8 -21 -1 -34 -24 -34 -25 0 -35 17 -20 35 16 20
36 19 44 -1z m285 -58 c1 -5 -2 -6 -6 -3 -3 4 -13 1 -22 -6 -14 -10 -14 -10
-3 4 7 9 12 21 11 25 -1 5 -1 14 1 19 1 10 18 -23 19 -39z m16 34 c-3 -5 -1
-10 4 -10 6 0 11 -7 11 -15 0 -8 5 -15 11 -15 5 0 7 -4 4 -10 -3 -5 -14 -10
-23 -10 -12 0 -14 3 -5 8 10 6 10 12 -2 28 -17 23 -19 34 -4 34 5 0 7 -4 4
-10z m231 -22 c4 -6 3 -8 -3 -5 -13 8 -37 -19 -29 -32 4 -5 2 -12 -3 -15 -10
-6 -25 43 -16 52 3 3 5 0 5 -7 0 -8 5 -7 16 3 18 19 21 19 30 4z m-67 -43 c12
5 13 4 4 -6 -9 -9 -16 -9 -26 -1 -8 7 -17 9 -20 5 -4 -3 -7 -1 -7 5 0 5 -3 19
-7 29 -3 10 3 6 17 -10 15 -19 28 -26 39 -22z m96 35 c-9 -14 8 -13 23 2 8 8
15 8 25 0 8 -7 17 -9 20 -5 4 3 7 1 7 -7 0 -10 3 -10 15 0 13 11 18 11 28 0
10 -10 9 -12 -5 -7 -20 7 -34 -10 -30 -35 2 -10 -1 -18 -7 -18 -6 0 -8 6 -5
13 3 8 -2 20 -11 27 -9 7 -15 8 -15 2 0 -6 5 -12 11 -14 7 -2 6 -8 -4 -16 -12
-10 -17 -10 -23 -1 -4 8 -3 9 4 5 16 -9 15 7 0 22 -9 9 -9 12 1 12 7 0 9 5 6
10 -11 18 -34 -8 -28 -30 3 -11 1 -20 -4 -20 -5 0 -10 6 -11 13 0 6 -4 22 -7
35 -5 14 -3 22 4 22 7 0 9 -4 6 -10z m121 -44 c18 -18 18 -22 -1 -29 -8 -4
-17 -1 -21 5 -4 7 -3 8 4 4 16 -9 15 7 0 22 -7 7 -9 12 -4 12 4 0 14 -6 22
-14z m74 -21 c6 3 10 2 10 -4 0 -15 -14 -21 -38 -14 -12 3 -22 12 -22 20 0 11
4 11 20 3 11 -6 25 -8 30 -5z m-2839 -180 l-11 -40 5 49 c3 27 6 67 7 90 2 38
2 38 5 -9 2 -27 -1 -68 -6 -90z m2952 -40 c-10 -13 -20 -19 -21 -14 -2 5 -7 7
-12 4 -4 -3 -6 4 -3 15 3 11 9 20 14 20 5 0 5 -7 2 -17 -4 -11 -3 -14 5 -9 7
4 12 14 12 22 0 8 5 12 10 9 6 -4 3 -15 -7 -30z m191 -13 c2 -4 1 -14 -5 -22
-7 -12 -9 -11 -10 5 0 11 -3 14 -6 8 -2 -7 -9 -13 -15 -13 -6 0 -6 6 2 15 14
17 26 19 34 7z m-3454 -157 c-6 -7 -7 -16 -2 -19 4 -2 6 -21 4 -40 -3 -25 -9
-36 -21 -36 -9 0 -12 3 -6 8 6 4 10 23 10 42 0 19 4 40 8 46 4 7 7 16 6 20 -1
5 0 18 1 29 2 14 4 12 7 -8 3 -16 -1 -34 -7 -42z m3316 40 c18 6 18 6 -1 -7
-11 -7 -20 -21 -20 -30 0 -10 -3 -17 -6 -15 -3 1 -14 -4 -23 -12 -14 -12 -13
-7 4 22 21 35 21 37 3 37 -15 0 -15 2 -3 10 9 5 17 5 21 -1 3 -5 14 -7 25 -4z
m-3326 -169 c0 -13 -7 -26 -15 -30 -16 -6 -21 9 -5 19 5 3 7 12 3 20 -3 8 0
15 6 15 6 0 11 -11 11 -24z m553 -227 c1 -81 5 -142 9 -135 4 6 8 7 8 1 0 -5
-5 -17 -10 -25 -12 -18 -13 -14 -15 75 -1 33 -5 121 -8 195 -4 101 -3 122 4
85 5 -27 11 -116 12 -196z m-592 121 l-10 -25 0 27 c-1 14 2 35 6 45 7 17 8
17 11 -2 1 -12 -2 -32 -7 -45z m418 -218 c14 -90 14 -145 1 -137 -5 3 -9 23
-8 43 1 47 -21 222 -31 242 -4 8 -5 22 -2 30 5 16 21 -53 40 -178z m281 -62
l-11 -25 6 25 c2 14 6 43 7 65 l1 40 4 -40 c2 -23 -1 -52 -7 -65z m814 -22
c-7 -72 -9 -78 -14 -43 -3 22 -2 45 2 51 4 5 5 20 1 32 -6 23 4 59 13 49 4 -3
3 -43 -2 -89z m-889 -148 c4 -74 13 -153 20 -175 20 -64 28 -103 15 -85 -24
35 -58 204 -61 305 0 18 14 96 17 92 2 -1 6 -63 9 -137z m483 63 c-1 -10 1
-24 5 -30 5 -8 3 -13 -3 -13 -12 0 -10 -15 6 -67 3 -10 -2 -5 -11 10 -23 39
-46 109 -35 102 6 -3 10 -12 10 -20 0 -8 5 -17 11 -20 6 -4 10 -1 8 6 -3 23 1
49 7 49 3 0 4 -8 2 -17z m-13 -109 c14 -31 25 -59 25 -63 0 -12 -43 65 -51 92
-13 44 0 31 26 -29z m505 -8 c0 -6 -4 -4 -10 4 -8 12 -10 12 -16 -3 -3 -9 -11
-17 -17 -17 -5 0 -2 9 7 19 10 11 15 26 11 33 -3 7 1 4 9 -6 9 -11 16 -25 16
-30z m170 -336 c29 -87 54 -214 29 -151 -5 14 -7 31 -5 38 3 7 2 13 -3 13 -5
0 -11 14 -15 32 -3 17 -9 28 -12 25 -4 -4 1 -34 10 -68 20 -71 16 -89 -6 -27
-17 49 -67 228 -74 264 -2 13 -9 35 -14 49 -6 15 -10 32 -10 38 1 18 29 -35
30 -55 0 -9 4 -19 9 -22 5 -4 3 18 -5 46 -7 29 -13 64 -13 78 0 14 11 -18 23
-70 13 -52 38 -138 56 -190z m-1663 78 c-2 -24 -4 -7 -4 37 0 44 2 63 4 43 2
-21 2 -57 0 -80z m1104 -38 c5 0 2 19 -6 43 -13 37 -13 40 0 23 8 -11 15 -24
15 -29 0 -4 3 -6 8 -4 4 3 8 -14 10 -38 1 -23 9 -62 17 -85 17 -49 19 -61 5
-40 -8 11 -9 0 -6 -37 3 -46 2 -51 -15 -50 -15 1 -19 10 -20 47 -1 25 -3 61
-3 80 -2 33 -41 144 -58 165 -4 5 -8 16 -7 25 0 8 12 -11 26 -42 15 -32 30
-58 34 -58z m2213 75 c-4 -9 0 -15 7 -15 9 -1 5 -8 -8 -19 -27 -23 -29 -32 -5
-25 16 5 16 5 -1 -6 -28 -18 -39 -7 -20 20 10 14 16 33 15 43 -2 9 1 17 7 17
6 0 8 -7 5 -15z m46 -10 c3 0 15 -7 27 -16 20 -14 21 -18 8 -35 -14 -19 -14
-19 -15 1 0 10 -12 30 -27 43 -16 13 -21 20 -13 15 8 -4 17 -8 20 -8z m178
-17 c-2 -7 1 -13 5 -13 11 0 30 -35 23 -42 -3 -4 -17 5 -30 20 -17 18 -21 28
-13 36 14 14 19 14 15 -1z m372 -42 c0 -9 -8 -12 -25 -8 -14 2 -25 8 -25 13 0
5 11 9 25 9 14 0 25 -6 25 -14z m-470 -79 c0 4 5 0 11 -10 6 -10 8 -21 5 -24
-3 -4 -6 -1 -6 6 0 9 -5 9 -20 1 -14 -8 -20 -8 -20 0 0 6 -6 8 -12 4 -10 -6
-10 -5 -1 8 7 8 9 18 5 23 -4 4 3 2 16 -4 12 -6 22 -8 22 -4z m-2777 -128 c-5
-4 -9 13 -10 39 l-1 47 9 -39 c5 -22 6 -43 2 -47z m2967 22 c12 -23 17 -40 11
-36 -10 6 -41 69 -41 83 0 9 7 -1 30 -47z m-170 -3 c8 3 12 2 8 -2 -3 -4 -14
-9 -25 -11 -10 -1 -17 -8 -15 -14 1 -6 -2 -11 -8 -11 -5 0 -10 8 -11 18 0 15
-1 15 -8 -2 -6 -16 -9 -17 -13 -4 -8 19 7 45 16 29 11 -18 29 -13 22 7 -5 15
-5 15 6 1 7 -9 20 -14 28 -11z"/>
<path d="M6686 3538 c-28 -43 -38 -85 -26 -107 13 -26 25 -26 50 -1 23 23 33
56 28 96 -4 37 -32 43 -52 12z"/>
<path d="M7828 6560 c-25 -5 -55 -13 -65 -19 -15 -9 -13 -10 12 -5 17 4 45 8
63 9 18 1 38 7 45 14 12 12 12 12 -55 1z"/>
<path d="M7758 6453 c-21 -8 -38 -19 -38 -24 0 -5 18 0 40 11 22 11 40 23 40
25 0 6 2 7 -42 -12z"/>
<path d="M8657 6270 c-29 -41 -29 -47 3 -30 18 9 46 70 32 70 -4 0 -20 -18
-35 -40z"/>
<path d="M8418 6233 c-34 -32 -49 -41 -45 -28 8 25 -91 -82 -116 -124 -28 -47
-15 -37 37 29 26 33 50 59 55 57 4 -1 36 24 71 56 35 31 60 57 56 57 -4 0 -30
-21 -58 -47z"/>
<path d="M8354 6131 c-91 -81 -154 -149 -154 -167 0 -4 9 5 21 20 11 14 25 24
30 20 5 -3 8 -2 7 3 -3 10 51 83 62 83 4 0 38 29 75 65 38 36 66 65 64 65 -3
0 -50 -40 -105 -89z"/>
<path d="M8529 6148 c-30 -40 -31 -41 -5 -18 26 24 52 60 42 60 -2 0 -19 -19
-37 -42z"/>
<path d="M8612 6108 c-22 -29 -38 -54 -37 -56 4 -5 64 58 76 80 22 41 -1 27
-39 -24z"/>
<path d="M8420 6098 c-63 -73 -100 -125 -93 -132 3 -3 -21 -36 -54 -73 -64
-74 -133 -166 -133 -179 0 -4 27 29 60 75 33 45 65 79 70 76 9 -6 23 11 26 32
1 7 18 32 37 55 20 24 35 47 35 52 0 4 13 22 29 40 27 29 79 106 71 106 -2 0
-23 -23 -48 -52z"/>
<path d="M8329 6043 c-63 -68 -123 -143 -118 -148 3 -2 27 24 54 57 28 34 65
79 84 100 48 54 32 47 -20 -9z"/>
<path d="M8147 5963 c-42 -55 -77 -97 -111 -133 -21 -22 -49 -61 -124 -170
-13 -19 -28 -34 -33 -33 -4 2 -6 -4 -3 -12 3 -8 -5 -25 -18 -37 -44 -42 -83
-122 -120 -246 -19 -65 0 -42 32 40 18 46 44 105 58 132 23 48 25 49 40 30 12
-16 14 -16 9 -1 -8 20 2 49 13 42 5 -3 12 0 16 6 4 8 3 9 -4 5 -17 -10 -14 5
6 37 10 15 22 24 27 20 4 -5 5 -2 1 5 -5 9 1 24 16 40 13 15 44 54 69 87 24
33 54 71 67 85 12 14 22 29 22 33 0 5 18 29 40 54 34 39 48 63 37 63 -2 0 -19
-21 -40 -47z"/>
<path d="M8167 5908 c-28 -38 -40 -58 -34 -58 2 0 18 20 36 45 18 25 30 45 27
45 -3 0 -16 -15 -29 -32z"/>
<path d="M8670 5875 c-6 -19 -15 -35 -20 -35 -12 0 -19 -26 -13 -50 5 -20 7
-20 21 11 8 19 18 45 22 59 7 21 8 21 9 5 1 -11 -5 -31 -12 -45 -40 -78 -71
-283 -47 -320 7 -11 10 -6 10 21 0 32 8 68 27 119 3 8 6 29 6 47 1 17 5 30 9
27 4 -3 6 16 4 41 -2 25 0 45 4 45 5 0 8 25 7 55 -2 63 -11 70 -27 20z"/>
<path d="M8069 5798 c-7 -12 -20 -29 -31 -36 -10 -7 -18 -18 -18 -23 0 -6 -13
-29 -29 -52 -56 -82 -137 -259 -182 -400 -20 -62 -63 -276 -57 -282 2 -2 16
47 32 108 15 62 39 144 54 182 27 75 111 257 122 265 12 8 131 252 126 257 -2
3 -10 -6 -17 -19z"/>
<path d="M8064 5597 c-16 -27 -37 -62 -46 -78 -10 -16 -13 -29 -7 -29 5 0 12
8 16 18 3 9 22 40 43 67 49 67 51 72 36 72 -7 0 -26 -23 -42 -50z"/>
<path d="M8867 5560 c-5 -41 -14 -102 -22 -135 -7 -33 -16 -78 -19 -101 -7
-49 -42 -163 -57 -180 -19 -23 -28 -71 -16 -84 9 -10 9 -11 -2 -5 -9 5 -12 3
-9 -6 3 -8 -8 -41 -23 -74 -30 -66 -72 -196 -65 -202 2 -2 12 20 21 49 26 80
56 148 66 148 5 0 5 7 2 17 -4 11 -3 14 5 9 8 -5 10 -2 6 8 -4 9 1 18 10 22 9
3 13 10 10 15 -3 5 0 9 6 9 7 0 9 7 6 17 -4 10 -4 14 0 10 9 -9 56 102 48 114
-3 5 0 9 7 9 7 0 10 3 6 6 -3 3 -1 18 5 33 10 25 13 38 23 84 2 12 8 36 11 52
4 17 8 53 9 82 2 28 5 55 9 61 3 5 2 29 -3 53 l-9 44 -2 -35 c-3 -34 -3 -33
-9 10 -6 44 -7 43 -14 -30z"/>
<path d="M8209 5528 c-1 -7 -2 -21 -2 -30 0 -13 -6 -17 -23 -14 -33 6 -39 -10
-6 -17 15 -3 34 -8 43 -12 13 -5 18 2 24 31 4 26 3 39 -7 45 -18 12 -28 11
-29 -3z"/>
<path d="M7826 5469 c-15 -33 -26 -63 -23 -65 2 -2 16 23 31 57 15 34 25 63
23 66 -2 2 -16 -24 -31 -58z"/>
<path d="M8261 5479 c-6 -18 -11 -39 -10 -48 1 -9 7 4 15 28 16 51 12 68 -5
20z"/>
<path d="M8280 5451 c-19 -39 -50 -119 -50 -133 0 -18 19 -6 23 15 l4 22 8
-23 c6 -17 10 -20 16 -11 6 10 12 9 29 -6 18 -16 23 -17 30 -5 6 8 10 18 10
22 0 3 12 10 26 15 25 8 26 10 10 26 -10 9 -22 15 -27 12 -5 -4 -4 6 1 21 9
22 8 25 -5 20 -10 -4 -15 1 -15 14 0 10 -4 22 -10 25 -5 3 -10 -1 -10 -9 0 -8
-4 -18 -10 -21 -6 -4 -7 6 -4 25 9 41 -2 38 -26 -9z"/>
<path d="M8081 5422 c-13 -25 -17 -43 -11 -47 9 -6 11 -4 14 20 1 6 8 21 15
33 7 13 10 26 8 29 -3 3 -15 -13 -26 -35z"/>
<path d="M8136 5445 c-8 -22 19 -90 37 -93 22 -4 53 26 60 59 6 25 4 27 -38
38 -55 14 -52 14 -59 -4z m65 -39 c16 9 10 -14 -8 -31 -16 -16 -17 -16 -30 1
-18 24 -17 39 2 24 12 -10 15 -9 16 6 0 11 3 14 6 6 2 -6 9 -10 14 -6z"/>
<path d="M8606 5392 c-2 -4 -34 -23 -70 -41 -68 -34 -89 -51 -62 -51 8 0 16 6
19 13 2 6 8 9 12 5 4 -4 3 -13 -1 -20 -5 -7 -9 -20 -9 -28 0 -10 -8 -14 -23
-13 -13 2 -21 -1 -17 -7 3 -6 13 -10 21 -10 16 0 19 -16 4 -25 -20 -12 -2
-125 20 -125 5 0 7 -17 4 -37 -4 -37 -4 -37 10 7 30 94 47 162 42 167 -2 3
-10 -13 -17 -36 -7 -23 -16 -41 -21 -41 -5 0 -6 -4 -3 -10 3 -5 1 -18 -5 -27
-9 -14 -10 -10 -5 22 4 22 7 51 7 64 0 15 3 19 7 12 5 -8 13 -1 22 21 8 18 13
37 11 42 -2 5 4 6 13 3 8 -4 15 -2 15 2 0 5 -6 12 -12 14 -9 4 -8 6 2 6 9 1
22 22 32 51 15 46 17 62 4 42z"/>
<path d="M8100 5352 c0 -13 74 -35 96 -29 15 4 14 5 -6 6 -14 1 -36 8 -50 16
-29 17 -40 18 -40 7z"/>
<path d="M7683 5233 c-36 -117 -71 -275 -70 -313 0 -14 -2 -52 -6 -85 l-6 -60
15 65 c8 36 13 73 10 83 -2 9 0 17 6 17 6 0 8 11 6 25 -3 14 -2 25 1 25 4 0
15 42 25 93 10 50 25 118 33 151 20 81 10 81 -14 -1z"/>
<path d="M7729 5243 c-5 -16 -12 -35 -15 -43 -11 -31 -34 -166 -33 -195 0 -16
11 22 25 85 13 63 28 129 33 147 11 40 4 44 -10 6z"/>
<path d="M8710 5140 c0 -6 -20 -61 -44 -123 -24 -61 -46 -128 -50 -147 l-7
-35 16 28 c37 65 107 287 90 287 -3 0 -5 -5 -5 -10z"/>
<path d="M8234 4926 c-9 -23 7 -50 31 -54 12 -3 15 0 10 9 -5 8 -4 10 4 5 6
-4 9 -11 6 -16 -3 -4 15 -16 40 -27 44 -18 45 -19 45 -62 0 -50 11 -46 30 12
8 25 17 37 30 37 10 0 22 5 26 12 5 7 3 8 -6 3 -10 -6 -12 -4 -7 8 10 27 -32
46 -107 51 -51 3 -71 8 -81 22 -13 18 -14 18 -21 0z"/>
<path d="M8602 4732 c-18 -42 -32 -88 -32 -102 1 -15 15 13 36 69 43 116 41
137 -4 33z"/>
<path d="M8533 4587 c-7 -15 -13 -42 -12 -60 l1 -32 14 34 c8 18 14 45 12 60
l-3 26 -12 -28z"/>
<path d="M8491 4480 c-1 -14 -8 -36 -17 -50 -15 -25 -15 -25 -8 10 3 19 3 32
-1 28 -12 -11 -36 -119 -60 -263 -19 -113 -23 -130 -25 -90 l-3 50 -8 -66 c-7
-50 -5 -76 5 -105 8 -22 15 -32 15 -24 1 13 2 13 11 0 16 -26 29 31 24 106 -3
38 -2 64 3 57 5 -6 9 8 10 35 2 54 7 79 15 87 3 4 5 -7 4 -24 -1 -20 3 -31 11
-31 15 0 18 -26 3 -35 -6 -4 -7 -11 -4 -17 4 -6 10 -5 15 3 7 11 9 11 9 -1 0
-9 -5 -21 -12 -28 -9 -9 -9 -12 1 -12 8 0 11 -6 7 -15 -3 -9 1 -18 9 -22 11
-3 13 -12 9 -27 -6 -21 -6 -21 9 -1 11 14 12 25 5 38 -5 10 -7 21 -4 24 3 4 2
11 -3 17 -6 6 -12 36 -15 66 -4 43 -4 48 3 22 10 -39 31 -66 31 -40 0 9 -5 29
-10 44 -12 31 -7 42 13 26 34 -28 51 39 28 109 -6 19 -12 61 -14 92 -2 45 -4
54 -13 41 -12 -15 -11 -39 4 -165 7 -61 7 -66 -10 -61 -10 2 -18 12 -18 21 0
14 2 14 11 1 8 -12 9 -10 5 10 -3 14 -6 31 -6 38 0 7 -3 11 -8 8 -4 -2 -6 13
-4 35 3 26 0 39 -8 39 -8 0 -10 -9 -6 -27 5 -21 4 -24 -4 -13 -13 20 -13 47 1
52 6 2 9 20 6 43 -2 23 -5 29 -6 15z"/>
<path d="M7108 4276 c3 -5 -2 -6 -12 -3 -11 5 -15 3 -10 -5 5 -7 2 -9 -8 -6
-8 4 -21 2 -29 -4 -11 -8 -11 -9 3 -4 20 6 34 -10 16 -17 -9 -4 -10 -6 -1 -6
6 -1 15 4 18 9 3 6 17 10 29 10 13 0 34 9 47 19 l24 19 -41 -1 c-23 -1 -39 -6
-36 -11z"/>
<path d="M8546 4222 c-12 -19 25 -114 40 -100 4 4 1 14 -5 22 -7 9 -10 24 -6
37 5 16 4 19 -6 14 -9 -6 -11 -2 -7 13 6 21 -5 31 -16 14z"/>
<path d="M7000 3986 c0 -8 -6 -16 -12 -19 -7 -2 -10 -8 -5 -12 4 -5 13 -3 19
3 15 15 19 42 7 42 -5 0 -9 -6 -9 -14z"/>
<path d="M6883 3865 c-3 -9 -3 -18 0 -21 9 -9 27 6 27 22 0 19 -19 18 -27 -1z"/>
<path d="M6823 3837 c-10 -21 -8 -23 11 -22 19 2 22 6 18 35 -3 18 -18 11 -29
-13z"/>
<path d="M7187 3419 c-10 -18 -16 -34 -14 -36 3 -2 14 12 25 32 12 19 18 35
14 35 -4 0 -15 -14 -25 -31z"/>
<path d="M7130 2993 c-13 -28 -16 -35 -18 -62 -2 -11 -5 -11 -17 -1 -13 10
-15 9 -15 -9 0 -12 -7 -24 -15 -27 -16 -6 -21 -54 -7 -54 8 0 23 25 36 60 3 8
5 0 3 -17 -2 -19 1 -33 7 -33 15 0 36 48 36 82 0 16 7 42 15 58 13 25 13 30 2
30 -8 0 -20 -12 -27 -27z"/>
<path d="M7136 2862 c-7 -12 56 -20 81 -11 15 6 14 8 -7 8 -14 1 -35 4 -46 7
-12 3 -24 1 -28 -4z"/>
<path d="M7032 2818 c-7 -7 -12 -18 -12 -25 0 -7 -10 -13 -22 -13 -12 0 -18
-3 -14 -7 9 -9 78 -12 91 -4 6 3 35 11 65 17 l55 11 -52 2 c-30 0 -53 6 -57
14 -3 8 -8 7 -16 -5 -15 -24 -29 -23 -23 2 6 23 2 25 -15 8z"/>
<path d="M7093 2747 c-13 -5 -23 -16 -23 -24 0 -17 4 -17 40 6 35 21 20 35
-17 18z"/>
<path d="M7720 2559 c0 -5 -4 -7 -10 -4 -5 3 -10 2 -10 -3 0 -5 13 -9 30 -9
24 0 27 3 19 14 -14 16 -29 17 -29 2z"/>
<path d="M8447 2514 c7 -3 10 -13 7 -22 -5 -14 -4 -14 6 1 6 10 19 16 28 13
52 -14 86 -18 76 -7 -5 6 -37 13 -70 15 -32 3 -54 2 -47 0z"/>
<path d="M8583 2478 c0 -13 1 -17 4 -10 12 30 86 3 81 -30 -2 -12 3 -23 10
-25 13 -5 17 34 4 53 -6 10 -72 34 -92 34 -3 0 -6 -10 -7 -22z"/>
<path d="M8310 2460 c14 -9 99 -15 89 -6 -2 2 -26 7 -54 10 -35 5 -46 3 -35
-4z"/>
<path d="M8474 2449 c-3 -5 10 -9 28 -10 18 0 45 -3 61 -5 15 -3 27 -1 27 3 0
5 -12 9 -27 10 -16 1 -40 3 -56 6 -15 2 -30 0 -33 -4z"/>
<path d="M7191 2102 c0 -7 -13 -29 -27 -48 -15 -19 -23 -34 -18 -34 4 0 3 -5
-4 -12 -17 -17 -15 -29 3 -22 8 4 15 13 15 21 0 8 9 28 21 44 11 16 18 37 16
47 -3 9 -5 11 -6 4z"/>
<path d="M8330 1594 c36 -8 100 -9 100 -2 0 5 -26 7 -57 7 -32 -1 -51 -3 -43
-5z"/>
<path d="M6260 353 c0 -30 16 -38 23 -11 4 12 4 24 2 27 -3 2 -5 -2 -5 -10 0
-11 -2 -11 -10 1 -8 12 -10 11 -10 -7z"/>
<path d="M4652 180 c6 -23 12 -39 14 -37 6 6 -9 77 -16 77 -4 0 -3 -18 2 -40z"/>
<path d="M4603 110 c0 -36 2 -50 4 -32 2 17 2 47 0 65 -2 17 -4 3 -4 -33z"/>
<path d="M5455 107 c3 -30 1 -46 -5 -42 -6 3 -10 2 -10 -4 0 -5 8 -9 19 -8 19
1 19 1 -3 82 -3 11 -3 -2 -1 -28z"/>
<path d="M6304 67 c1 -21 6 -34 14 -34 9 0 11 8 7 26 -10 41 -22 45 -21 8z"/>
</g>
</svg>
