<?xml version="1.0" standalone="no"?>
<!DOCTYPE svg PUBLIC "-//W3C//DTD SVG 20010904//EN"
 "http://www.w3.org/TR/2001/REC-SVG-20010904/DTD/svg10.dtd">
<svg version="1.0" xmlns="http://www.w3.org/2000/svg"
 width="1000.000000pt" height="1000.000000pt" viewBox="0 0 1000.000000 1000.000000"
 preserveAspectRatio="xMidYMid meet">
<metadata>
Created by potrace 1.11, written by Peter Selinger 2001-2013
</metadata>
<g transform="translate(0.000000,1000.000000) scale(0.100000,-0.100000)"
fill="#000000" stroke="none">
<path d="M1270 5060 l-824 -2220 -153 0 -153 0 0 -60 0 -60 495 0 495 0 0 60
0 60 -241 0 c-225 0 -241 1 -236 18 3 9 114 324 248 700 l244 682 640 -2 640
-3 232 -685 c128 -377 232 -691 232 -697 1 -10 -50 -13 -224 -13 l-225 0 0
-60 0 -60 1055 0 1055 0 0 60 0 60 -148 0 -149 0 -225 613 c-123 336 -490
1335 -814 2219 l-589 1608 -266 0 -265 0 -824 -2220z m820 173 c150 -456 275
-834 277 -840 4 -10 -115 -13 -577 -13 l-582 0 5 23 c13 49 592 1657 598 1657
3 0 128 -372 279 -827z"/>
<path d="M4750 7180 l0 -60 175 0 175 0 0 -2140 0 -2140 -175 0 -175 0 0 -60
0 -60 440 0 440 0 0 60 0 60 -180 0 -180 0 0 2030 c0 1714 2 2030 14 2030 9 0
24 -37 43 -107 16 -60 272 -1000 569 -2090 l539 -1983 402 0 402 0 10 38 c5
20 222 948 481 2062 259 1114 473 2033 476 2043 3 9 12 17 20 17 12 0 14 -270
12 -2017 l-3 -2018 -177 -3 -178 -2 0 -60 0 -60 985 0 985 0 0 60 0 60 -175 0
-175 0 0 2140 0 2140 175 0 175 0 0 60 0 60 -862 0 -863 0 -385 -1654 c-212
-910 -387 -1652 -390 -1649 -3 2 -196 746 -430 1651 l-426 1647 -872 3 -872 2
0 -60z"/>
</g>
</svg>
